<?xml version="1.0" standalone="no"?>
<!DOCTYPE svg PUBLIC "-//W3C//DTD SVG 20010904//EN"
 "http://www.w3.org/TR/2001/REC-SVG-20010904/DTD/svg10.dtd">
<svg version="1.0" xmlns="http://www.w3.org/2000/svg"
 width="903.000000pt" height="837.000000pt" viewBox="0 0 903.000000 837.000000"
 preserveAspectRatio="xMidYMid meet">

<g transform="translate(0.000000,837.000000) scale(0.100000,-0.100000)"
fill="#000000" stroke="none">
<path d="M7895 8361 c-50 -13 -77 -31 -137 -89 -74 -72 -92 -122 -86 -236 3
-65 10 -92 31 -130 15 -27 27 -49 27 -51 0 -5 -467 -443 -541 -506 -47 -41
-130 -114 -185 -163 -54 -49 -113 -100 -131 -113 l-32 -24 -51 40 c-29 23 -63
44 -77 47 -40 10 -146 -2 -187 -21 -42 -20 -106 -106 -106 -142 0 -13 -5 -23
-10 -23 -6 0 -62 46 -125 102 l-114 101 92 86 c51 47 115 108 144 134 l51 48
131 -68 131 -68 116 -3 c121 -4 240 16 275 45 8 7 20 13 26 13 6 0 22 12 37
27 24 24 25 29 12 38 -12 9 -13 14 -4 23 9 9 7 17 -10 32 -11 11 -28 20 -36
20 -18 0 -63 58 -101 128 -15 28 -32 52 -37 52 -4 0 -9 -17 -9 -37 -1 -33 -2
-31 -10 17 -20 118 -112 255 -204 303 -31 16 -59 21 -125 22 -77 0 -90 -3
-140 -31 -105 -59 -157 -164 -148 -298 3 -40 14 -88 24 -110 l19 -38 -140
-134 c-77 -73 -143 -133 -148 -134 -4 0 -89 54 -190 121 -389 257 -727 388
-1147 445 -170 23 -618 23 -773 0 -408 -60 -818 -212 -1142 -423 -266 -174
-591 -467 -784 -708 -127 -158 -289 -418 -372 -600 -54 -116 -43 -112 -189
-72 -125 33 -228 47 -354 47 l-103 0 -5 288 c-3 158 -5 288 -3 290 1 1 29 7
63 13 56 10 60 13 66 41 8 41 6 403 -2 500 -8 87 -10 89 -104 138 l-58 30 -80
-40 -81 -41 3 -305 c3 -289 4 -306 22 -320 11 -8 34 -14 52 -14 17 0 37 -6 43
-14 8 -9 11 -96 9 -296 l-3 -282 -90 -32 c-291 -105 -485 -281 -626 -571 -75
-153 -92 -230 -93 -410 0 -203 19 -293 102 -463 64 -133 147 -234 424 -518
179 -183 250 -263 267 -300 15 -31 62 -88 132 -159 l109 -111 -17 -94 c-13
-72 -17 -150 -17 -320 1 -250 11 -320 63 -457 44 -114 166 -313 192 -313 24 0
-11 265 -44 329 -15 30 -14 346 2 439 8 50 48 155 68 181 2 3 10 -4 18 -15 23
-32 115 -201 115 -212 0 -6 -18 -37 -40 -69 -101 -143 -91 -308 25 -432 56
-60 133 -101 189 -101 74 0 116 -11 116 -30 0 -16 154 -135 313 -243 32 -22
64 -48 70 -58 7 -11 19 -19 28 -19 9 0 31 -7 49 -17 26 -13 39 -14 61 -6 26
10 30 8 55 -24 25 -32 30 -35 67 -30 126 17 697 370 697 430 0 7 -18 19 -39
28 -57 24 -220 135 -341 232 -123 99 -333 312 -441 447 -111 139 -238 317
-231 324 11 12 4565 -3 4577 -15 8 -9 -151 -254 -223 -344 -93 -116 -250 -282
-351 -373 -289 -258 -680 -473 -1011 -557 -326 -83 -801 -99 -1155 -39 -209
35 -475 121 -475 154 0 10 80 35 149 45 24 4 220 10 435 14 296 5 397 10 415
20 57 32 10 36 -382 36 -423 -1 -493 -7 -597 -56 -77 -36 -123 -69 -340 -249
-208 -172 -268 -218 -372 -282 -185 -115 -349 -172 -541 -189 -143 -12 -332 1
-447 31 -101 26 -103 26 -76 -15 22 -31 65 -59 191 -124 17 -8 36 -21 44 -28
20 -20 177 -97 246 -121 97 -33 257 -55 349 -49 115 7 221 34 257 64 33 28 89
118 89 144 0 9 9 37 20 63 24 52 36 56 110 31 25 -8 66 -17 91 -20 27 -3 67
-19 98 -39 28 -18 86 -48 129 -66 42 -18 151 -68 242 -110 186 -88 332 -151
434 -187 66 -23 121 -36 341 -83 55 -12 129 -28 165 -36 87 -19 308 -19 383 1
32 8 75 15 96 15 21 0 58 7 81 15 23 8 59 15 80 15 20 0 57 11 82 24 26 14
102 35 176 50 72 14 171 39 219 55 48 16 107 32 131 36 23 4 56 18 73 32 28
24 35 25 112 20 45 -2 112 -13 149 -23 62 -17 84 -17 275 -6 222 12 277 22
473 89 270 91 572 264 747 425 l72 67 84 -6 84 -6 46 42 c56 52 72 94 63 170
-4 31 -7 66 -8 78 0 12 42 80 96 155 155 214 253 429 351 773 34 122 34 127
-12 123 l-38 -3 -22 -102 c-56 -259 -184 -551 -335 -764 -46 -64 -88 -125 -93
-134 -10 -16 -15 -17 -63 -5 -49 13 -56 12 -105 -9 l-52 -22 -128 133 c-187
195 -270 288 -259 288 6 0 14 -4 17 -10 10 -16 22 -11 30 13 4 12 7 25 6 30
-1 4 13 26 29 49 17 23 33 59 36 80 4 21 12 38 18 38 6 0 64 -55 129 -122 115
-118 171 -168 190 -168 11 0 -32 54 -154 195 -47 55 -92 110 -98 123 -15 28
-6 58 20 72 10 6 19 18 19 28 0 30 37 78 85 111 25 17 52 31 59 31 6 0 16 4
22 8 5 5 50 21 99 36 104 32 169 63 241 118 76 57 102 100 114 189 18 140 14
191 -22 259 -18 34 -48 79 -66 101 -18 21 -41 62 -51 91 -24 69 -81 182 -119
234 -16 22 -73 73 -126 113 -53 41 -96 77 -96 81 0 4 24 5 53 4 l52 -4 -40 15
-40 14 60 -6 c89 -9 243 -5 297 7 36 9 65 9 117 0 54 -9 96 -9 183 0 77 9 186
10 343 6 l230 -7 25 26 c23 24 25 34 25 113 -1 48 -6 130 -13 182 -6 52 -15
158 -19 235 l-8 140 -48 82 c-52 91 -70 157 -86 308 -6 67 -20 128 -41 184
-50 137 -47 158 54 348 l33 62 -18 103 c-25 146 -53 226 -107 297 -22 30 -26
32 -32 16 -5 -13 -17 5 -48 69 -104 216 -207 328 -350 377 -80 28 -254 59
-326 59 -140 0 -294 -78 -423 -213 -75 -79 -127 -169 -169 -292 -34 -101 -39
-245 -10 -340 68 -228 262 -420 503 -499 28 -9 71 -31 94 -48 24 -17 82 -52
129 -77 l85 -46 145 -5 145 -5 -1 -57 c-1 -62 -15 -88 -46 -88 -28 0 -94 -36
-112 -61 -11 -17 -30 -23 -83 -29 -76 -8 -83 -7 -83 20 0 10 -12 32 -26 49
-20 24 -34 31 -60 31 -47 0 -93 -25 -105 -58 -8 -21 -25 -471 -29 -739 0 -33
0 -33 -50 -33 l-50 0 0 398 0 398 -66 57 c-62 54 -69 57 -117 57 -33 0 -66 7
-90 20 -20 11 -49 20 -64 20 -38 1 -109 34 -121 57 -5 10 -15 52 -22 93 -15
93 -45 176 -126 356 -72 158 -93 232 -77 266 6 13 20 44 32 70 18 40 20 53 12
84 -11 41 -37 74 -58 74 -7 0 -13 3 -13 6 0 25 325 346 710 700 96 89 207 191
247 228 l72 67 43 -29 c69 -46 210 -92 283 -92 45 0 68 5 80 16 17 17 49 74
43 78 -11 8 -74 30 -80 28 -13 -4 -9 13 13 64 32 71 30 138 -5 199 -41 71 -93
124 -151 151 -47 22 -49 25 -47 59 4 41 -40 147 -60 143 -9 -2 -14 18 -18 73
-9 126 -81 239 -185 289 -47 23 -160 34 -210 21z m164 -120 c22 -12 52 -38 66
-59 27 -41 50 -134 40 -160 -6 -15 -10 -13 -31 11 l-24 28 -45 -48 c-50 -54
-51 -56 -30 -73 13 -11 12 -16 -7 -42 -20 -28 -24 -30 -69 -25 -101 12 -167
71 -189 170 -20 93 31 191 113 216 46 15 128 6 176 -18z m83 -283 c-7 -7 -12
-8 -12 -2 0 14 12 26 19 19 2 -3 -1 -11 -7 -17z m-1429 -112 c86 -35 153 -179
116 -247 -10 -20 -11 -20 -24 -3 -11 16 -17 16 -51 6 -51 -16 -68 -27 -60 -41
9 -14 43 -15 48 -1 2 6 9 6 17 0 21 -12 -2 -60 -28 -60 -11 0 -22 -4 -25 -9
-12 -18 -75 -22 -113 -6 -155 65 -180 275 -43 354 41 24 115 27 163 7z m1188
-95 c57 -28 124 -54 148 -60 24 -5 48 -14 54 -20 13 -13 25 -102 26 -198 l1
-72 -112 -104 c-62 -57 -169 -155 -238 -217 -69 -62 -222 -206 -340 -319 -118
-113 -245 -235 -282 -269 l-67 -64 -16 34 c-10 18 -33 49 -51 69 l-34 35 31
45 c44 62 463 475 714 705 205 186 314 299 301 311 -3 3 -23 -5 -44 -19 -74
-50 -451 -387 -709 -635 -145 -139 -266 -253 -271 -253 -32 0 -131 116 -143
168 -6 27 -4 43 6 59 8 12 79 77 157 144 79 67 231 208 338 313 187 183 415
396 423 396 3 0 51 -22 108 -49z m-3176 -61 c209 -24 463 -85 629 -151 124
-49 302 -142 478 -249 168 -103 198 -126 198 -151 0 -22 -138 -165 -181 -187
-23 -12 -30 -11 -75 18 -104 65 -231 79 -321 34 -116 -57 -181 -157 -190 -292
-5 -74 -4 -81 31 -149 l36 -72 -108 -100 c-352 -328 -546 -381 -1080 -294
l-103 16 -30 66 c-16 36 -48 85 -71 108 l-40 41 -9 519 c-10 618 -10 620 -19
533 -4 -36 -8 -288 -9 -561 l-1 -495 -59 4 c-50 4 -68 0 -125 -27 -88 -42
-101 -67 -100 -182 l1 -86 -82 -52 c-44 -28 -86 -51 -92 -51 -18 0 -22 108
-29 764 -3 341 -9 629 -13 640 -13 35 -21 -285 -21 -875 l0 -576 -92 -80 c-51
-45 -96 -79 -100 -76 -5 2 -8 103 -8 224 0 120 -4 219 -8 219 -4 0 -13 -5 -20
-12 -15 -15 -16 -211 -1 -353 l10 -100 -103 -97 c-57 -54 -107 -93 -111 -89
-5 5 -13 157 -17 338 -5 193 -13 343 -20 366 -8 28 -8 46 1 75 17 52 25 750 9
766 -30 30 -31 -25 -25 -803 l7 -784 -38 -34 c-22 -18 -103 -87 -181 -154 -78
-66 -145 -124 -148 -129 -12 -19 -35 -9 -91 40 -82 72 -182 184 -316 356 -110
142 -138 171 -277 292 -33 29 -61 59 -61 66 0 8 36 86 80 174 143 285 314 517
569 772 482 481 982 736 1624 830 111 16 171 19 372 15 132 -3 281 -9 330 -15z
m3702 -49 c29 -29 53 -88 53 -132 0 -31 -39 -86 -74 -103 -29 -14 -56 -11
-118 15 -34 14 -58 65 -58 124 0 57 12 80 53 105 49 30 109 26 144 -9z m-7387
-422 l50 -11 0 -258 0 -258 -82 5 c-46 3 -85 7 -87 9 -10 9 -12 471 -2 497 12
31 36 34 121 16z m5158 -216 c43 -38 103 -90 135 -117 l57 -50 1 -80 c0 -45 4
-133 8 -196 5 -63 5 -118 2 -122 -3 -4 -33 6 -65 22 -32 17 -71 30 -85 30 -46
0 -69 11 -75 35 -7 28 -142 155 -208 196 -43 28 -78 82 -78 122 0 12 209 227
222 227 4 0 43 -30 86 -67z m504 27 c85 -53 83 -40 86 -498 l3 -403 -117 -125
c-128 -137 -147 -152 -170 -133 -12 10 -14 91 -14 528 0 311 4 530 10 552 11
39 38 69 85 93 42 22 63 20 117 -14z m-1031 -130 c39 -18 82 -87 83 -134 1
-38 -1 -41 -27 -41 -19 0 -38 -12 -62 -38 -35 -39 -88 -67 -124 -67 -14 0 -19
-5 -15 -15 8 -19 -17 -75 -33 -75 -22 0 -81 60 -102 104 -23 46 -27 118 -10
163 15 40 57 82 104 105 43 21 139 20 186 -2z m2532 -36 c166 -43 309 -168
402 -353 29 -58 55 -163 55 -225 l0 -39 -182 8 c-101 4 -190 11 -198 15 -8 5
-28 32 -45 60 -32 56 -87 92 -159 106 -39 7 -39 6 -121 -80 -45 -47 -87 -86
-93 -86 -21 0 103 -169 142 -194 67 -44 90 -37 191 54 49 44 94 80 101 80 7 0
26 8 43 18 25 14 34 15 48 4 10 -7 26 -15 36 -19 17 -5 18 -13 12 -62 -12 -97
-44 -183 -81 -218 -32 -30 -46 -73 -24 -73 14 0 50 -75 50 -104 0 -28 -30 -52
-105 -83 -51 -21 -140 -43 -176 -43 -28 0 -22 44 6 48 66 10 65 9 65 68 0 54
-1 55 -36 70 -21 9 -39 24 -42 37 -9 32 -21 -39 -21 -130 -1 -88 -7 -103 -38
-103 -65 0 -235 62 -302 110 -16 11 -32 33 -36 49 -4 19 -14 31 -29 35 -78 20
-165 181 -196 367 -10 55 -9 83 5 155 32 180 67 255 157 340 86 83 240 160
358 179 25 4 52 11 60 16 23 13 86 10 153 -7z m-2551 -545 c114 -55 232 -107
262 -117 37 -11 57 -23 60 -37 9 -33 7 -135 -3 -135 -5 0 -33 11 -63 25 -71
33 -121 32 -195 -5 -116 -58 -143 -124 -143 -350 0 -80 -4 -151 -9 -158 -7
-11 -17 -8 -52 14 -90 57 -213 41 -284 -38 -57 -63 -62 -83 -69 -313 -5 -157
-10 -212 -20 -219 -11 -8 -10 -14 2 -36 15 -27 15 -31 -17 -94 -19 -36 -39
-70 -46 -76 -8 -7 -46 2 -117 26 l-106 35 -4 102 c-3 82 -9 111 -27 147 -89
172 -210 229 -340 162 -23 -12 -47 -22 -54 -22 -7 0 -51 48 -97 107 -113 143
-256 286 -358 358 -45 32 -85 68 -88 79 -7 31 33 179 53 194 18 13 60 14 518
17 250 2 275 4 340 24 164 53 321 154 504 324 83 77 109 96 125 91 12 -4 114
-51 228 -105z m679 33 c38 -43 49 -109 49 -300 l0 -168 -56 -17 c-77 -24 -108
-48 -138 -109 -30 -61 -36 -161 -11 -194 8 -10 15 -23 15 -27 0 -11 -101 -117
-111 -117 -12 0 -11 735 0 823 7 50 16 76 33 94 64 68 165 75 219 15z m-2491
-112 c22 -11 52 -39 67 -61 26 -39 26 -42 12 -82 -28 -81 -117 -109 -207 -66
-51 25 -79 71 -68 115 4 15 27 47 50 71 50 50 83 55 146 23z m2954 -1736 l-6
-982 -132 -6 c-72 -4 -139 -9 -148 -12 -17 -5 -18 45 -18 953 l0 959 36 35
c49 47 94 127 94 168 0 19 -10 65 -22 102 l-21 67 109 123 109 122 3 -274 c2
-151 0 -716 -4 -1255z m-908 1440 c71 -40 75 -58 82 -366 l5 -270 -149 -149
c-82 -82 -152 -149 -156 -149 -5 0 -8 198 -8 439 l0 439 46 41 c65 57 102 60
180 15z m-2143 -15 c56 -15 89 -51 85 -92 -2 -26 -7 -31 -23 -29 -11 2 -56 6
-100 10 l-80 7 -3 36 c-2 19 2 48 8 63 11 31 17 31 113 5z m-2303 -33 c132
-41 191 -68 185 -84 -6 -16 -352 -606 -406 -693 -16 -25 -37 -53 -47 -61 -23
-21 -159 -28 -567 -29 l-330 -1 3 49 c4 71 49 228 88 310 36 75 120 193 198
277 34 37 50 47 66 43 17 -4 19 -3 9 9 -19 23 6 43 126 100 110 51 213 89 270
98 73 11 351 -2 405 -18z m2138 -23 l-3 -46 -66 -23 c-99 -33 -129 -38 -129
-22 0 7 12 22 27 32 53 39 158 106 166 106 4 0 7 -21 5 -47z m2859 -104 c55
-26 97 -93 87 -136 -18 -76 -69 -123 -133 -123 -28 0 -44 10 -88 53 -47 48
-53 59 -53 95 0 47 35 97 85 118 41 18 52 17 102 -7z m-4589 -98 c146 -145
238 -301 277 -472 24 -104 22 -279 -4 -396 -65 -295 -270 -552 -544 -678 -111
-51 -178 -66 -332 -72 -122 -5 -151 -3 -224 16 -182 46 -320 121 -441 241
-179 178 -270 355 -304 598 l-6 42 377 1 c513 1 1181 15 1218 26 29 9 28 10
-20 16 -27 4 -151 11 -275 17 -240 11 -290 16 -290 29 0 27 454 721 471 721 4
0 48 -40 97 -89z m1734 4 c-5 -83 -31 -150 -77 -195 -32 -31 -34 -31 -63 -16
-44 23 -62 70 -62 164 0 56 4 83 14 91 15 12 122 30 166 27 25 -1 25 -2 22
-71z m116 69 c16 -5 22 -13 20 -27 -2 -16 4 -22 28 -29 17 -4 37 -15 44 -23 7
-8 18 -15 26 -15 7 0 18 -10 25 -21 9 -17 13 -19 20 -8 7 11 19 9 65 -15 79
-41 148 -107 291 -279 l123 -148 -21 -84 c-12 -46 -26 -91 -33 -99 -10 -13
-26 -12 -136 5 -69 12 -130 26 -136 32 -7 7 -22 42 -34 80 -19 57 -25 67 -45
67 -14 0 -33 -12 -47 -30 l-23 -29 -53 25 c-36 17 -78 28 -129 31 -41 3 -76
11 -78 17 -1 6 -8 34 -14 61 -7 28 -28 76 -47 108 -46 75 -44 109 6 117 49 8
57 15 65 53 10 49 26 87 38 87 6 0 3 6 -7 13 -16 12 -21 38 -17 95 1 23 22 28
69 16z m-373 -130 c8 -59 13 -109 11 -111 -4 -4 -144 -22 -171 -22 -19 0 -19
0 -2 13 22 17 22 34 0 58 -16 18 -16 19 6 25 15 4 19 8 10 13 -8 5 10 29 56
74 37 37 69 65 72 63 2 -3 11 -53 18 -113z m-225 -119 c0 -55 -5 -74 -37 -136
-32 -59 -38 -83 -41 -146 -8 -140 31 -192 223 -299 186 -104 233 -138 240
-177 9 -49 23 -201 19 -206 -2 -2 -13 8 -25 24 -75 94 -168 111 -283 50 l-66
-35 -9 22 c-10 26 -124 138 -160 157 -13 7 -53 16 -89 19 l-67 7 -57 85 c-31
47 -79 106 -107 131 l-51 46 30 45 c16 25 74 92 129 149 l98 104 7 -120 c16
-297 19 -336 24 -330 3 3 5 111 4 241 l-2 236 102 99 c57 54 106 98 111 99 4
0 7 -29 7 -65z m2360 -20 c14 -7 38 -27 54 -44 28 -29 29 -35 37 -163 12 -206
11 -352 -3 -371 -12 -15 -19 -13 -81 14 -56 23 -83 29 -143 29 l-74 0 0 227 0
226 26 34 c54 71 111 86 184 48z m3370 -520 l0 -545 -55 0 -55 0 0 523 c0 589
-3 567 71 567 l39 0 0 -545z m-2541 485 c24 -17 55 -30 68 -30 l23 0 0 -950 0
-950 -150 0 -150 0 0 895 0 894 76 86 c42 47 79 85 83 85 3 0 26 -14 50 -30z
m-2921 -74 c38 -20 68 -55 87 -100 20 -47 10 -62 -51 -77 -57 -15 -87 -48 -94
-107 -5 -44 -7 -47 -36 -50 -44 -4 -115 51 -132 103 -18 53 -10 150 15 184 41
56 149 79 211 47z m4251 -428 c-1 -211 -4 -417 -8 -458 -7 -81 -14 -89 -68
-75 l-26 6 6 435 c4 278 10 441 17 454 8 14 21 20 45 20 l35 0 -1 -382z m-199
352 c19 -19 20 -33 20 -450 l0 -430 -44 0 -43 0 -5 431 c-3 237 -3 439 -1 450
7 25 47 25 73 -1z m1238 -437 l2 -443 -57 0 -56 0 6 433 c6 396 8 433 24 445
10 7 32 12 48 10 l30 -3 3 -442z m-879 332 c11 -10 15 -80 22 -317 4 -167 8
-337 8 -379 l1 -76 -37 -11 c-69 -21 -68 -27 -71 371 -2 194 0 372 3 395 6 41
8 43 33 37 15 -3 33 -12 41 -20z m-3147 -21 c56 -29 88 -111 88 -223 0 -70 -7
-74 -69 -46 -39 18 -80 27 -150 33 l-96 7 -3 39 c-5 58 23 121 72 161 69 57
94 61 158 29z m1337 -846 l2 -808 -145 0 c-105 0 -147 3 -153 13 -4 6 -11 264
-14 572 -4 308 -10 601 -13 652 -6 108 -16 92 182 302 125 132 127 134 133
105 3 -16 7 -392 8 -836z m2158 840 c17 -22 21 -144 14 -440 -6 -210 -11 -291
-21 -303 -7 -8 -27 -15 -45 -15 l-32 0 4 323 c2 177 6 350 9 385 5 60 7 62 34
62 15 0 32 -6 37 -12z m357 -14 c3 -9 6 -177 6 -375 l0 -359 -50 0 -50 0 0
233 c0 129 -3 295 -7 370 l-6 135 24 5 c51 9 77 7 83 -9z m-4707 -86 c108 -35
97 46 102 -804 l3 -744 -157 0 -158 0 7 748 c4 411 10 767 13 791 l6 43 60 -7
c34 -3 89 -16 124 -27z m4533 -328 l0 -330 -43 0 -44 0 -7 103 c-6 100 0 431
10 515 5 41 6 42 45 42 l39 0 0 -330z m-4136 189 c67 -11 125 -24 129 -28 10
-10 29 -181 25 -231 l-3 -40 -65 45 c-84 57 -90 64 -166 169 -56 77 -68 106
-47 106 3 0 60 -9 127 -21z m402 -96 l131 -17 6 -450 c4 -247 7 -539 7 -648
l0 -198 -150 0 c-147 0 -150 0 -154 23 -3 12 -7 314 -9 670 l-4 648 21 -5 c12
-4 80 -14 152 -23z m853 12 c41 -21 82 -106 71 -146 -14 -46 -46 -92 -78 -111
-63 -37 -189 -12 -217 43 -20 38 -19 138 1 167 38 55 159 81 223 47z m-378
-133 c6 -7 45 -95 75 -172 10 -27 13 -123 14 -436 0 -220 -3 -442 -6 -492 l-7
-92 -142 0 -142 0 -6 272 c-9 343 -9 754 -1 879 l7 96 101 -24 c55 -13 104
-27 107 -31z m2208 -49 c7 -15 15 -76 18 -135 l6 -108 -42 0 c-37 0 -41 2 -41
25 0 35 20 217 25 233 7 20 21 14 34 -15z m-4296 -8 c74 -51 71 -29 75 -612
l4 -523 -161 0 -161 0 1 263 c0 144 4 381 7 527 7 258 8 266 31 298 52 74 135
93 204 47z m1264 -64 c59 -44 58 -32 61 -573 l3 -498 -151 0 -151 0 3 509 3
509 25 27 c54 59 147 70 207 26z m-842 -44 c22 -12 46 -35 54 -51 22 -47 30
-203 31 -598 l0 -378 -154 0 -153 0 -6 83 c-11 134 -8 808 3 848 6 22 28 53
55 78 38 35 51 41 87 41 26 0 59 -9 83 -23z m2159 -49 c3 -24 7 -252 8 -508
l3 -465 -146 -3 -146 -3 -6 83 c-11 136 -8 837 3 858 8 16 21 19 83 18 80 -2
136 13 162 42 26 29 33 25 39 -22z m-2924 -206 c0 -38 -14 -71 -23 -56 -8 14
5 104 14 98 5 -3 9 -22 9 -42z m5383 21 c-18 -2 -48 -2 -65 0 -18 2 -4 4 32 4
36 0 50 -2 33 -4z m-5505 -132 c49 -25 90 -70 101 -109 5 -18 13 -149 17 -292
l7 -260 -160 0 c-139 0 -162 2 -167 16 -7 17 1 356 10 482 5 63 10 78 36 108
28 31 90 72 111 74 4 0 24 -9 45 -19z m5143 -7 c69 -20 111 -46 178 -109 98
-92 141 -190 141 -323 0 -69 -4 -87 -32 -142 -20 -40 -58 -91 -102 -136 -76
-76 -133 -105 -247 -126 -136 -24 -346 83 -424 216 -64 108 -71 284 -17 397
48 99 143 188 241 224 51 19 196 18 262 -1z m-724 -1221 c51 -24 87 -83 80
-133 -15 -114 -138 -161 -236 -90 -57 40 -78 122 -47 178 32 59 129 80 203 45z
m-5060 -24 c61 -23 124 -105 138 -180 19 -103 -79 -232 -192 -254 -82 -15
-184 54 -211 142 -15 50 -16 142 -1 180 12 34 53 79 94 104 34 21 126 26 172
8z m148 -479 c10 -11 15 -20 11 -20 -14 0 -46 21 -46 30 0 16 16 11 35 -10z
m5530 -192 l146 -143 -12 -53 c-12 -51 -8 -91 16 -153 4 -11 -20 -36 -82 -86
-125 -101 -257 -184 -418 -263 -255 -125 -465 -191 -673 -211 -131 -13 -211
-8 -244 15 -28 20 -57 20 -92 2 -15 -8 -36 -11 -47 -9 -19 5 -19 7 6 33 14 15
54 44 88 64 34 21 87 54 118 74 31 20 78 51 105 67 62 38 294 268 294 291 0
10 3 14 6 11 4 -3 15 -2 25 4 17 8 19 6 19 -19 0 -31 33 -82 54 -82 6 0 43 13
81 29 86 36 109 68 78 110 -11 14 -32 27 -47 29 -23 3 -25 7 -20 30 9 38 11
40 54 62 50 26 76 54 84 90 8 41 68 104 156 164 70 48 136 85 152 86 4 0 73
-64 153 -142z m-3530 -304 c78 -41 136 -169 120 -270 -9 -59 -60 -132 -118
-168 -125 -77 -305 -26 -371 105 -32 65 -35 153 -7 214 21 48 96 117 143 133
54 18 187 10 233 -14z"/>
<path d="M4117 7013 c-10 -614 -8 -895 5 -858 14 38 24 1285 10 1285 -5 0 -12
-178 -15 -427z"/>
<path d="M3595 7396 c-11 -26 2 -1077 14 -1089 20 -20 24 99 17 547 -6 454
-13 582 -31 542z"/>
<path d="M3107 7159 c-10 -178 -8 -668 2 -713 5 -21 15 -44 21 -50 16 -15 9
840 -6 867 -8 14 -12 -10 -17 -104z"/>
<path d="M2618 6864 c-10 -9 -11 -1366 -2 -1453 16 -152 24 -3 23 449 -2 574
-11 1015 -21 1004z"/>
<path d="M2347 6443 c-7 -43 0 -590 9 -858 12 -323 25 -147 25 335 0 441 -5
560 -21 560 -4 0 -10 -17 -13 -37z"/>
<path d="M3017 6349 c-21 -12 -47 -61 -47 -88 0 -24 45 -36 83 -22 22 9 27 17
27 44 0 20 -8 42 -20 55 -12 12 -22 22 -23 22 -1 0 -10 -5 -20 -11z"/>
<path d="M7563 6243 c15 -2 39 -2 55 0 15 2 2 4 -28 4 -30 0 -43 -2 -27 -4z"/>
<path d="M5211 5918 c-11 -30 3 -56 36 -64 32 -8 57 6 61 35 5 32 -15 51 -55
51 -26 0 -36 -5 -42 -22z"/>
<path d="M4091 5916 c-7 -9 -35 -18 -61 -22 -93 -12 -91 -44 3 -44 54 0 53 2
62 -94 10 -99 26 -63 27 60 1 97 -8 127 -31 100z"/>
<path d="M4573 5820 c-95 -4 -176 -9 -179 -13 -3 -3 32 -25 77 -48 83 -43 85
-43 205 -47 198 -6 345 26 392 86 l25 32 -96 0 c-52 0 -119 -5 -148 -12 -41
-10 -53 -10 -57 0 -2 7 -13 11 -25 10 -12 -1 -100 -4 -194 -8z"/>
<path d="M1210 5389 c0 -67 14 -72 23 -8 6 44 1 69 -14 69 -5 0 -9 -27 -9 -61z"/>
<path d="M1724 4658 l-19 -23 23 19 c21 18 27 26 19 26 -2 0 -12 -10 -23 -22z"/>
<path d="M1619 4553 c-13 -16 -12 -17 4 -4 9 7 17 15 17 17 0 8 -8 3 -21 -13z"/>
<path d="M1530 4489 c-24 -16 -40 -29 -34 -29 11 0 84 48 84 55 0 7 0 7 -50
-26z"/>
<path d="M3420 5661 c-12 -24 -13 -101 -1 -120 12 -19 34 -2 52 40 10 26 10
35 -4 59 -9 15 -14 30 -10 34 3 3 -1 6 -10 6 -9 0 -21 -9 -27 -19z"/>
<path d="M7390 4024 c-46 -20 -106 -79 -133 -129 -25 -48 -34 -171 -18 -232 6
-22 26 -63 44 -90 26 -38 47 -56 109 -87 67 -34 85 -39 145 -39 85 0 150 27
211 86 70 68 86 107 87 212 0 81 -3 95 -30 144 -58 105 -148 151 -293 151 -55
-1 -100 -6 -122 -16z m224 -98 l24 -15 -22 -60 c-12 -34 -35 -75 -52 -93 -73
-80 -101 -147 -72 -176 35 -35 -57 -23 -101 13 -56 48 -88 155 -65 220 16 47
79 113 119 125 42 13 141 5 169 -14z"/>
<path d="M1760 2753 c-42 -14 -53 -70 -20 -103 47 -47 126 -3 104 58 -9 27
-58 53 -84 45z"/>
<path d="M7060 2017 c0 -89 20 -103 98 -71 51 20 84 84 45 84 -10 0 -42 11
-71 25 -30 14 -58 25 -63 25 -5 0 -9 -28 -9 -63z"/>
<path d="M3952 1830 c19 -26 23 -44 23 -104 0 -64 -3 -77 -28 -109 -21 -28
-38 -38 -67 -43 -22 -4 -37 -10 -34 -15 9 -16 58 -10 92 11 40 25 92 104 92
141 0 54 -36 115 -83 141 -16 8 -15 4 5 -22z"/>
<path d="M3746 1789 c-14 -17 -26 -39 -26 -50 0 -25 48 -125 67 -141 8 -6 5 4
-6 23 -30 50 -37 116 -18 162 9 20 14 37 12 37 -2 0 -15 -14 -29 -31z"/>
<path d="M3867 1763 c-14 -13 -7 -74 8 -79 21 -8 45 14 45 40 0 34 -34 59 -53
39z"/>
<path d="M4246 8104 c-27 -26 -18 -77 15 -95 14 -7 23 -5 39 11 25 25 26 62 2
83 -23 21 -36 21 -56 1z"/>
<path d="M4467 8103 c-13 -12 -7 -81 7 -86 37 -15 73 52 44 81 -13 13 -41 16
-51 5z"/>
<path d="M4691 8084 c-27 -35 -26 -58 3 -77 22 -15 25 -14 45 7 25 26 27 58 5
80 -21 22 -29 20 -53 -10z"/>
<path d="M4018 8054 c-11 -22 -10 -28 7 -40 31 -23 53 -17 60 16 8 37 0 50
-31 50 -17 0 -28 -8 -36 -26z"/>
<path d="M3840 8052 c-33 -27 -21 -72 18 -72 37 0 52 17 52 57 0 28 -4 33 -24
33 -13 0 -34 -8 -46 -18z"/>
<path d="M4897 8063 c-13 -12 -7 -69 8 -89 15 -19 15 -19 35 5 32 38 24 91
-14 91 -13 0 -26 -3 -29 -7z"/>
<path d="M5101 8007 c-13 -39 -1 -87 22 -87 27 0 48 36 45 77 -3 33 -7 38 -30
41 -22 3 -28 -2 -37 -31z"/>
<path d="M3680 8020 c-13 -8 -12 -13 7 -32 20 -19 23 -20 29 -5 7 19 -1 47
-13 47 -4 0 -15 -5 -23 -10z"/>
<path d="M3519 7966 c-10 -21 -9 -30 5 -51 21 -31 38 -28 51 9 18 51 -34 91
-56 42z"/>
<path d="M5295 7959 c-15 -28 -15 -33 0 -55 8 -13 22 -24 30 -24 21 0 48 57
41 86 -10 36 -51 32 -71 -7z"/>
<path d="M3300 7915 c-29 -35 41 -133 76 -104 19 16 18 84 -2 103 -19 20 -58
21 -74 1z"/>
<path d="M5495 7885 c-39 -38 -29 -95 17 -95 20 0 58 54 58 82 0 15 -27 38
-45 38 -3 0 -17 -11 -30 -25z"/>
<path d="M2054 7879 c-26 -29 -26 -134 0 -173 16 -25 22 -28 54 -21 21 4 51 6
69 6 29 -1 33 2 42 36 15 51 14 69 -5 104 -10 19 -31 37 -60 50 -58 24 -76 24
-100 -2z m86 -90 c0 -37 -1 -39 -21 -29 -29 16 -34 38 -14 60 24 26 35 17 35
-31z"/>
<path d="M3086 7804 c-22 -22 -21 -24 19 -24 33 0 35 2 25 20 -13 24 -23 25
-44 4z"/>
<path d="M5685 7804 c-18 -19 -17 -95 1 -101 6 -2 26 8 43 22 36 31 41 69 12
85 -27 14 -37 13 -56 -6z"/>
<path d="M2987 7754 c-13 -13 -7 -51 11 -67 24 -22 43 -7 45 34 2 29 -1 34
-23 37 -14 2 -29 0 -33 -4z"/>
<path d="M996 7717 c-21 -15 -35 -72 -26 -107 5 -20 13 -26 41 -28 44 -4 73
25 73 73 0 59 -47 92 -88 62z"/>
<path d="M5850 7681 c-20 -38 16 -76 58 -60 17 6 22 16 22 44 0 33 -2 35 -35
35 -24 0 -37 -6 -45 -19z"/>
<path d="M2797 7659 c-23 -32 -21 -46 8 -75 20 -20 28 -23 45 -14 28 15 25 44
-8 81 l-29 32 -16 -24z"/>
<path d="M1660 7589 c-50 -20 -93 -63 -117 -117 -61 -132 6 -284 144 -329 100
-32 210 15 258 110 27 55 33 124 15 188 -13 48 -75 118 -124 140 -45 20 -135
24 -176 8z m140 -95 c89 -53 84 -212 -7 -251 -70 -29 -139 4 -168 82 -20 52
-15 100 17 140 36 46 106 59 158 29z"/>
<path d="M1730 7397 c-16 -8 -26 -23 -28 -40 -3 -27 -1 -28 30 -25 30 3 33 6
36 41 3 40 -1 43 -38 24z"/>
<path d="M6030 7575 c-18 -21 -4 -64 25 -77 31 -14 53 -5 61 27 12 49 -55 88
-86 50z"/>
<path d="M2595 7510 c-18 -20 -18 -21 5 -46 14 -14 33 -24 45 -22 16 2 20 10
20 43 0 35 -3 40 -26 43 -15 2 -32 -5 -44 -18z"/>
<path d="M2428 7409 c-24 -13 -23 -40 3 -73 28 -35 66 -35 75 1 14 54 -35 98
-78 72z"/>
<path d="M2245 7290 c-21 -23 -15 -43 20 -66 48 -31 77 25 33 66 -27 25 -31
25 -53 0z"/>
<path d="M600 6832 c0 -4 5 -13 11 -19 13 -13 5 -43 -10 -43 -5 0 -11 10 -14
22 -6 20 -8 20 -28 6 -32 -21 -33 -31 -5 -61 30 -32 54 -34 90 -6 33 26 33 49
-2 82 -29 27 -42 33 -42 19z"/>
<path d="M225 6606 c-54 -20 -120 -92 -135 -147 -7 -24 -10 -67 -7 -95 10 -99
65 -167 159 -200 l45 -15 5 -155 c3 -89 9 -159 15 -165 14 -14 20 16 28 131
12 181 11 178 64 204 101 52 148 132 138 237 -11 120 -97 206 -214 215 -36 3
-73 -1 -98 -10z m47 -196 c-4 -37 -21 -49 -37 -26 -10 14 -11 24 -4 38 15 27
45 19 41 -12z m38 -29 c0 -12 -20 -25 -27 -18 -7 7 6 27 18 27 5 0 9 -4 9 -9z"/>
<path d="M367 4240 c-3 -14 -9 -72 -12 -129 -5 -80 -11 -111 -26 -132 -22 -32
-24 -86 -4 -113 12 -16 15 -54 15 -176 l0 -157 -41 -12 c-53 -16 -114 -72
-147 -135 -32 -64 -35 -142 -7 -201 30 -61 97 -123 148 -137 l45 -12 4 -205
c5 -205 14 -261 41 -261 27 0 67 -41 77 -79 14 -54 2 -127 -27 -162 -20 -24
-33 -29 -67 -29 -23 0 -58 9 -79 19 -34 17 -37 18 -37 2 0 -48 83 -87 147 -69
88 24 128 83 121 179 -5 66 -25 95 -92 132 l-38 22 6 74 c3 41 6 141 6 223 l0
148 28 11 c15 6 46 14 70 16 23 3 45 10 49 16 3 6 1 7 -5 3 -18 -11 -14 3 9
36 93 131 44 315 -105 396 l-50 27 3 125 c2 132 6 169 22 236 9 35 8 47 -10
80 -16 30 -21 57 -22 124 0 47 -4 103 -8 125 -7 36 -8 37 -14 15z m48 -819
c39 -22 64 -68 72 -130 5 -48 3 -54 -23 -82 -82 -86 -189 -75 -234 24 -26 55
-25 93 3 147 34 68 105 84 182 41z"/>
<path d="M8376 4105 c-75 -26 -142 -116 -153 -202 -12 -109 78 -225 207 -264
39 -11 78 -31 91 -45 49 -53 265 -87 303 -48 15 14 19 26 31 89 9 45 -48 158
-108 214 -14 12 -30 20 -35 17 -5 -3 -12 8 -16 25 -8 44 -70 141 -111 178 -56
49 -134 63 -209 36z m82 -82 c2 -8 -5 -13 -17 -13 -13 0 -21 -6 -21 -17 0 -9
-7 -25 -16 -35 -24 -25 -5 -44 57 -57 75 -16 79 -15 79 22 0 24 3 28 10 17 13
-21 12 -74 -2 -105 -15 -34 -106 -78 -142 -69 -57 14 -103 104 -85 168 18 66
122 133 137 89z m62 -49 c0 -17 -22 -14 -28 4 -2 7 3 12 12 12 9 0 16 -7 16
-16z"/>
<path d="M39 3951 c-33 -34 -36 -60 -12 -102 22 -37 64 -55 92 -40 48 26 57
106 16 146 -32 33 -60 31 -96 -4z"/>
<path d="M8440 3435 c-18 -21 -3 -46 33 -59 35 -13 42 -4 31 36 -11 38 -43 49
-64 23z"/>
<path d="M2560 3175 l0 -35 118 0 c64 0 208 3 320 7 l202 6 0 29 0 28 -320 0
-320 0 0 -35z"/>
<path d="M3330 3175 l0 -35 1518 0 c1329 0 1521 2 1538 15 18 14 18 16 2 28
-25 20 -551 27 -1920 27 l-1138 0 0 -35z"/>
<path d="M575 3110 c-3 -5 -1 -10 4 -10 6 0 11 5 11 10 0 6 -2 10 -4 10 -3 0
-8 -4 -11 -10z"/>
<path d="M7901 3058 c-16 -44 -22 -86 -12 -92 16 -11 39 4 51 35 10 24 10 33
-4 54 -20 31 -24 31 -35 3z"/>
<path d="M2925 2920 c-132 -5 -140 -6 -140 -25 0 -20 8 -20 1698 -23 l1697 -2
0 30 0 30 -1557 -2 c-857 -1 -1621 -5 -1698 -8z"/>
<path d="M7976 2904 c-30 -30 -10 -80 30 -72 30 6 39 33 21 62 -20 30 -30 32
-51 10z"/>
<path d="M5490 2717 c0 -8 -9 -22 -21 -33 -19 -17 -45 -20 -328 -26 -168 -3
-520 -7 -781 -7 -261 -1 -504 -6 -539 -11 -65 -9 -146 -44 -191 -81 l-25 -21
60 6 c33 3 107 11 165 18 58 6 239 12 402 12 l297 1 36 -35 c51 -50 71 -85 91
-164 21 -83 62 -137 91 -120 10 6 26 27 37 48 30 61 11 103 -93 209 l-86 89
95 -6 c52 -4 254 -8 448 -9 l354 -2 24 28 c29 34 30 56 3 91 -22 28 -39 34
-39 13z"/>
<path d="M5787 2652 c-87 -6 -69 -62 20 -62 52 0 116 25 111 42 -5 15 -64 24
-131 20z"/>
<path d="M3130 2630 c-12 -7 -12 -12 -2 -22 19 -19 293 -23 351 -6 25 7 46 19
49 26 5 15 -374 17 -398 2z"/>
<path d="M4994 2370 c-109 -9 -154 -18 -154 -30 0 -17 71 -22 254 -19 185 4
227 12 200 39 -14 14 -189 20 -300 10z"/>
<path d="M8104 2155 c22 -46 45 -73 46 -55 0 9 -14 31 -30 50 -31 35 -31 35
-16 5z"/>
<path d="M8430 2027 c-23 -38 -25 -63 -6 -70 14 -6 33 -84 22 -94 -3 -3 -10 5
-16 18 -7 17 -9 18 -7 5 1 -10 10 -24 20 -30 15 -9 23 -6 43 17 13 15 24 36
24 45 0 12 -6 9 -18 -10 -9 -16 -20 -28 -24 -28 -15 0 -8 28 17 64 29 43 30
49 9 81 -24 37 -42 38 -64 2z m55 -37 c0 -22 -39 -19 -43 3 -3 15 1 18 20 15
12 -2 23 -10 23 -18z"/>
<path d="M8171 2031 c-21 -13 1 -22 79 -28 67 -6 70 -5 70 16 0 19 -5 21 -67
21 -38 0 -74 -4 -82 -9z"/>
<path d="M8582 2028 c-24 -29 -18 -127 8 -156 26 -27 35 -27 61 -1 32 32 23
87 -20 116 -24 16 -29 23 -16 23 10 0 27 -7 37 -17 22 -20 24 -6 2 25 -17 24
-56 29 -72 10z m53 -92 c0 -38 -18 -43 -39 -11 -20 30 -13 47 17 43 17 -2 22
-10 22 -32z"/>
<path d="M8222 1894 c-96 -12 -117 -19 -88 -30 25 -10 165 1 178 14 23 23 0
28 -90 16z"/>
<path d="M908 1624 c-32 -17 -78 -91 -78 -125 1 -35 33 -100 67 -132 80 -75
219 -25 254 93 11 36 10 44 -13 87 -31 61 -83 93 -153 92 -27 0 -62 -6 -77
-15z m124 -74 c29 -22 40 -72 26 -110 -12 -31 -25 -40 -61 -40 -42 0 -65 16
-75 54 -14 48 -4 84 27 101 36 19 54 18 83 -5z"/>
<path d="M4317 820 c25 -33 46 -49 61 -50 22 0 22 0 6 38 -9 20 -18 43 -21 50
-3 7 -22 12 -45 12 l-39 0 38 -50z"/>
<path d="M5654 861 c-57 -15 -93 -43 -110 -88 -15 -38 -15 -47 -3 -80 20 -51
62 -76 168 -103 96 -23 141 -52 141 -90 0 -60 -55 -94 -140 -88 -71 5 -108 28
-128 79 -12 32 -20 39 -42 39 -27 0 -28 -1 -20 -37 24 -105 137 -163 261 -133
134 32 172 185 61 248 -20 11 -69 28 -107 38 -114 28 -155 58 -140 104 20 63
145 84 204 34 17 -14 31 -34 31 -45 0 -15 7 -19 31 -19 30 0 31 1 25 32 -7 36
-38 73 -77 93 -33 18 -115 26 -155 16z"/>
<path d="M390 610 l0 -250 30 0 30 0 0 250 0 250 -30 0 -30 0 0 -250z"/>
<path d="M1990 763 l0 -97 -28 27 c-40 39 -81 44 -136 18 -59 -29 -86 -82 -86
-170 0 -95 42 -163 112 -182 48 -12 101 2 123 34 15 21 15 21 15 -6 0 -23 4
-27 30 -27 l30 0 0 250 0 250 -30 0 -30 0 0 -97z m-35 -115 c29 -27 44 -93 34
-152 -13 -76 -94 -111 -152 -66 -52 41 -54 173 -2 217 34 30 86 30 120 1z"/>
<path d="M3080 830 c0 -26 4 -30 28 -30 25 0 29 4 30 30 1 27 -3 30 -29 30
-26 0 -29 -3 -29 -30z"/>
<path d="M4790 610 l0 -250 25 0 25 0 0 250 0 250 -25 0 -25 0 0 -250z"/>
<path d="M6770 830 c0 -27 3 -30 30 -30 27 0 30 3 30 30 0 27 -3 30 -30 30
-27 0 -30 -3 -30 -30z"/>
<path d="M7470 830 c0 -27 3 -30 29 -30 26 0 30 3 29 30 -1 26 -5 30 -30 30
-24 0 -28 -4 -28 -30z"/>
<path d="M983 823 c-18 -12 -23 -25 -23 -59 0 -37 -3 -44 -20 -44 -16 0 -20
-7 -20 -30 0 -23 4 -30 20 -30 19 0 20 -7 20 -128 0 -142 8 -166 60 -177 45
-10 68 1 63 30 -4 17 -13 25 -32 27 l-26 3 -3 123 -3 122 31 0 c27 0 30 3 30
30 0 27 -3 30 -30 30 l-30 0 0 60 c0 33 -3 60 -7 59 -5 0 -18 -7 -30 -16z"/>
<path d="M2923 823 c-18 -12 -23 -25 -23 -59 0 -37 -3 -44 -20 -44 -16 0 -20
-7 -20 -30 0 -23 4 -30 20 -30 19 0 20 -7 20 -130 0 -126 1 -132 25 -155 38
-39 106 -32 97 10 -3 17 -12 25 -31 27 l-26 3 -3 123 -3 122 31 0 c27 0 30 3
30 30 0 27 -3 30 -30 30 l-30 0 0 60 c0 33 -3 60 -7 59 -5 0 -18 -7 -30 -16z"/>
<path d="M6033 823 c-18 -12 -23 -25 -23 -59 0 -37 -3 -44 -20 -44 -16 0 -20
-7 -20 -30 0 -23 4 -30 20 -30 19 0 20 -7 20 -129 0 -152 9 -172 76 -175 35
-1 39 2 42 26 3 23 -1 27 -25 30 l-28 3 -3 123 -3 122 31 0 c27 0 30 3 30 30
0 27 -3 30 -30 30 l-30 0 0 60 c0 33 -3 60 -7 59 -5 0 -18 -7 -30 -16z"/>
<path d="M6613 823 c-18 -12 -23 -25 -23 -59 0 -37 -3 -44 -20 -44 -16 0 -20
-7 -20 -30 0 -23 4 -30 20 -30 19 0 20 -7 20 -128 0 -142 8 -166 60 -177 45
-10 68 1 63 30 -4 17 -13 25 -32 27 l-26 3 -3 123 -3 122 31 0 c27 0 30 3 30
30 0 27 -3 30 -30 30 l-30 0 0 60 c0 33 -3 60 -7 59 -5 0 -18 -7 -30 -16z"/>
<path d="M7313 823 c-18 -12 -23 -25 -23 -59 0 -37 -3 -44 -20 -44 -16 0 -20
-7 -20 -30 0 -23 4 -30 20 -30 19 0 20 -7 20 -129 0 -152 9 -172 76 -175 35
-1 39 2 42 26 3 23 -1 27 -25 30 l-28 3 -3 123 -3 122 31 0 c27 0 30 3 30 30
0 27 -3 30 -30 30 l-30 0 0 60 c0 33 -3 60 -7 59 -5 0 -18 -7 -30 -16z"/>
<path d="M680 719 c-14 -6 -35 -20 -47 -31 l-23 -21 0 26 c0 22 -5 27 -25 27
l-25 0 0 -180 0 -180 25 0 c25 0 25 1 27 93 0 50 2 97 3 102 2 6 3 23 4 38 3
66 103 105 151 57 18 -18 20 -33 20 -155 l0 -135 30 0 30 0 0 135 c0 144 -11
194 -48 214 -31 16 -94 22 -122 10z"/>
<path d="M1219 701 l-29 -29 0 24 c0 19 -5 24 -25 24 l-25 0 0 -180 0 -180 25
0 c25 0 25 0 25 95 0 171 21 221 92 213 24 -2 32 2 39 20 7 19 4 24 -17 32
-39 15 -53 12 -85 -19z"/>
<path d="M1457 716 c-83 -30 -112 -85 -105 -197 6 -108 57 -162 155 -163 108
-1 173 67 173 184 0 134 -107 219 -223 176z m129 -80 c31 -31 34 -40 34 -91 0
-92 -37 -135 -116 -135 -98 0 -140 175 -57 239 42 34 98 28 139 -13z"/>
<path d="M2625 715 c-75 -26 -112 -101 -102 -203 7 -71 33 -112 87 -140 79
-41 175 -10 207 66 16 39 17 37 -19 46 -22 5 -28 3 -28 -9 0 -30 -47 -65 -85
-65 -47 0 -71 14 -90 50 -32 61 -12 175 34 200 38 20 91 12 119 -18 28 -28 72
-33 72 -7 0 25 -51 74 -88 85 -47 13 -58 12 -107 -5z"/>
<path d="M3327 716 c-77 -28 -107 -78 -107 -176 0 -99 35 -155 113 -180 115
-37 216 47 217 180 0 134 -107 219 -223 176z m106 -57 c37 -17 57 -60 57 -124
0 -51 -3 -60 -34 -91 -92 -92 -213 7 -176 144 18 70 87 101 153 71z"/>
<path d="M3750 719 c-14 -6 -35 -20 -47 -31 l-23 -21 0 26 c0 22 -5 27 -25 27
l-25 0 0 -180 0 -180 25 0 c25 0 25 1 26 88 0 126 11 181 40 203 33 25 93 25
119 -1 18 -18 20 -33 20 -155 l0 -135 30 0 30 0 0 135 c0 144 -11 194 -48 214
-31 16 -94 22 -122 10z"/>
<path d="M4299 721 c-47 -15 -69 -31 -85 -62 -17 -35 -17 -36 11 -40 12 -2 31
8 47 24 50 50 168 30 168 -29 0 -29 -1 -30 -110 -48 -73 -13 -89 -20 -112 -46
-85 -93 31 -207 155 -152 24 11 48 25 51 31 11 18 24 13 28 -11 2 -16 11 -24
28 -26 l25 -3 -3 133 c-4 158 -10 185 -43 210 -28 21 -120 32 -160 19z m141
-217 c0 -56 -48 -94 -119 -94 -43 0 -71 20 -71 49 0 29 26 44 98 57 94 17 92
17 92 -12z"/>
<path d="M5039 721 c-47 -15 -69 -31 -85 -62 -17 -35 -17 -36 11 -40 12 -2 31
8 47 24 50 50 168 30 168 -28 0 -31 -3 -32 -91 -46 -115 -18 -159 -50 -159
-115 0 -81 94 -125 183 -86 24 11 48 25 51 31 11 18 24 13 28 -11 2 -16 11
-24 28 -26 l25 -3 -3 133 c-4 157 -10 186 -42 210 -28 20 -122 32 -161 19z
m141 -217 c0 -56 -48 -94 -119 -94 -43 0 -71 20 -71 49 0 29 26 44 98 57 94
17 92 17 92 -12z"/>
<path d="M6266 716 c-44 -17 -71 -41 -80 -73 -11 -34 33 -35 66 -1 48 51 168
32 168 -27 0 -31 -3 -32 -91 -46 -115 -18 -159 -50 -159 -115 0 -81 94 -125
183 -86 24 11 48 25 51 31 11 18 24 13 28 -11 2 -16 11 -24 28 -26 l25 -3 -3
133 c-4 158 -10 185 -43 210 -34 26 -123 32 -173 14z m154 -212 c0 -56 -48
-94 -119 -94 -43 0 -71 20 -71 49 0 29 26 44 98 57 94 17 92 17 92 -12z"/>
<path d="M6994 720 c-43 -14 -74 -51 -76 -91 -2 -67 13 -78 162 -126 42 -14
56 -23 58 -40 8 -53 -108 -74 -153 -28 -14 13 -25 28 -25 33 0 5 -11 7 -25 4
-33 -6 -32 -32 1 -71 73 -87 247 -51 261 54 8 60 -20 90 -110 116 -104 30
-117 36 -117 58 0 45 104 58 143 18 16 -15 31 -21 50 -17 26 5 26 6 11 36 -8
17 -27 37 -41 43 -36 17 -103 22 -139 11z"/>
<path d="M7705 716 c-37 -16 -70 -52 -84 -89 -17 -44 -13 -137 8 -183 38 -83
135 -115 200 -66 l31 23 0 -91 0 -90 30 0 30 0 0 250 0 250 -25 0 c-21 0 -25
-5 -25 -31 l0 -32 -25 27 c-42 45 -87 55 -140 32z m120 -70 c30 -30 48 -96 39
-143 -9 -50 -53 -93 -94 -93 -68 0 -100 44 -100 140 0 55 3 65 29 91 38 38 91
40 126 5z"/>
<path d="M8497 716 c-50 -18 -67 -34 -88 -81 -24 -53 -24 -138 1 -192 32 -71
116 -106 201 -83 43 12 99 60 99 85 0 26 -44 21 -78 -7 -54 -46 -143 -32 -170
27 -25 54 -23 55 123 55 133 0 135 0 135 23 0 76 -56 159 -118 177 -47 13 -58
12 -105 -4z m127 -68 c13 -13 27 -33 31 -45 6 -23 6 -23 -100 -23 -106 0 -106
0 -100 23 12 40 52 67 100 67 32 0 51 -6 69 -22z"/>
<path d="M2150 578 c0 -163 7 -184 63 -212 46 -22 94 -16 136 19 36 31 41 31
41 0 0 -20 5 -25 25 -25 l25 0 0 180 0 180 -29 0 -29 0 -4 -131 c-3 -129 -3
-131 -31 -155 -37 -31 -96 -33 -123 -3 -16 18 -20 40 -22 155 -4 134 -4 134
-28 134 l-24 0 0 -142z"/>
<path d="M3080 540 l0 -180 30 0 31 0 -1 180 -2 180 -29 0 -29 0 0 -180z"/>
<path d="M6770 540 l0 -180 30 0 30 0 0 180 0 180 -30 0 -30 0 0 -180z"/>
<path d="M7470 540 l0 -180 30 0 30 0 0 180 0 180 -30 0 -30 0 0 -180z"/>
<path d="M8020 578 c0 -163 7 -184 63 -212 49 -23 96 -15 142 26 l35 30 0 -31
c0 -26 4 -31 25 -31 l25 0 0 180 0 180 -29 0 -29 0 -4 -131 c-3 -129 -3 -131
-31 -155 -37 -31 -96 -33 -123 -3 -16 18 -19 40 -22 155 l-4 134 -24 0 -24 0
0 -142z"/>
</g>
</svg>
