<svg xmlns="http://www.w3.org/2000/svg" width="1024" height="1024" viewBox="0 0 1024 1024" version="1.1"><path d="M 516.371 209.087 C 512.623 210.174, 507.271 215.315, 505.432 219.594 L 504.103 222.689 493.302 223.327 C 468.167 224.811, 432.564 233.768, 403.500 245.920 C 346.001 269.959, 297.362 312.325, 264.349 367.125 C 252.885 386.155, 243.190 407.634, 236.487 428.853 C 231.568 444.422, 225.623 475.378, 224.305 492.282 C 223.746 499.459, 223.480 500.194, 220.892 501.723 C 217.429 503.769, 215.662 507.832, 215.570 513.963 C 215.515 517.607, 216.164 519.597, 218.500 522.961 C 223.577 530.270, 223.970 531.310, 223.993 537.500 C 224.062 555.674, 232.175 599.144, 238.447 614.947 C 239.854 618.493, 240.667 621.733, 240.253 622.147 C 239.839 622.561, 233.875 624.087, 227 625.539 C 220.125 626.991, 211.800 628.772, 208.500 629.499 C 202.742 630.766, 202.399 630.728, 200 628.563 C 195.136 624.173, 192.566 623, 187.812 623 C 183.919 623, 182.427 623.564, 179.484 626.148 C 177.511 627.880, 175.246 630.558, 174.449 632.099 C 168.900 642.829, 180.111 656.759, 191.319 653.060 C 195.197 651.780, 200.429 646.688, 201.914 642.750 C 202.883 640.179, 203.334 640, 208.830 640 C 215.590 640, 239.239 638.235, 243.092 637.443 C 245.503 636.948, 246.061 637.614, 251.092 647.009 C 262.379 668.086, 281.123 694.355, 298.285 713.146 C 313.153 729.428, 323.616 738.584, 346.851 755.649 C 353.784 760.741, 378.264 775.614, 386.690 779.854 C 404.155 788.641, 443.545 801.678, 464 805.440 C 471.986 806.909, 492.555 808.949, 499.733 808.984 C 502.602 808.998, 503.251 809.562, 505.498 813.995 C 510.690 824.241, 521.589 827.666, 532 822.323 C 536.284 820.124, 538.038 818.481, 539.935 814.891 L 542.370 810.281 552.435 809.652 C 569.479 808.586, 591.196 803.917, 618.631 795.421 C 670.630 779.318, 722.359 744.275, 758.286 700.814 C 772.569 683.535, 791.818 653.993, 796.632 641.963 C 798.248 637.922, 798.418 637.808, 801.901 638.416 C 803.881 638.761, 814.125 639.328, 824.667 639.675 L 843.835 640.307 845.600 644.222 C 849.619 653.135, 861.828 653.419, 868.339 644.751 C 873.736 637.566, 872.239 629.983, 864.532 625.466 C 858.158 621.731, 852.763 622.281, 847.334 627.221 C 845.301 629.070, 844.591 629.122, 835.834 628.066 C 820.515 626.218, 805.554 623.798, 804.706 623.031 C 804.269 622.635, 804.822 619.879, 805.934 616.906 C 809.945 606.183, 813.070 594.298, 816.933 575.073 C 820.113 559.248, 824 533.560, 824 528.370 C 824 527.793, 825.147 526.798, 826.549 526.159 C 829.819 524.670, 832.950 517.799, 832.978 512.051 C 832.998 507.993, 832.560 507.189, 828 502.908 C 823.282 498.478, 823 497.929, 823 493.173 C 823 481.270, 814.901 444.727, 807.070 421.294 C 795.499 386.673, 780.362 359.592, 756.303 330.466 C 739.591 310.235, 727.418 298.720, 703.054 280.095 C 662.348 248.977, 596.138 224.434, 550.788 223.651 C 542.335 223.505, 542.012 223.413, 541.128 220.906 C 539.742 216.976, 534.137 211.084, 530.233 209.453 C 526.381 207.843, 521.139 207.705, 516.371 209.087 M 539.906 234.748 C 535.220 247.072, 516.445 248.542, 507.026 237.323 L 503.739 233.407 491.619 235.177 C 451.911 240.974, 422.963 249.527, 392.500 264.462 C 357.445 281.649, 323.676 308.325, 300.158 337.407 C 262.771 383.641, 245.077 425.257, 237.067 485.798 C 235.302 499.136, 235.303 499.205, 237.336 501.098 C 238.458 502.144, 239.706 503, 240.107 503 C 240.508 503, 241.774 504.516, 242.918 506.368 C 247.061 513.070, 244.935 523.375, 238.548 527.561 C 236.423 528.953, 236 530.001, 236 533.871 C 236 550.068, 243.352 591.199, 249.567 609.771 C 250.905 613.770, 252 617.708, 252 618.521 C 252 620.782, 254.254 620.351, 265.590 615.918 C 278.132 611.015, 290.917 602.824, 304.535 590.970 C 344.464 556.209, 368.707 516.667, 401.999 432 C 407.171 418.848, 419.065 394.497, 425.354 384.186 C 434.056 369.919, 447.772 352.370, 457.169 343.481 C 466.955 334.223, 480.025 324.998, 491.537 319.223 C 500.262 314.847, 504.535 313.518, 513 312.548 L 518.501 311.918 518.141 292.873 C 517.694 269.197, 518.489 259.511, 521.094 256.906 C 523.799 254.201, 524.900 254.517, 526.551 258.468 C 527.685 261.181, 528 267.353, 528 286.827 L 528 311.719 538.750 314.368 C 557.538 318.999, 572.923 328.059, 589.859 344.465 C 613.135 367.012, 628.542 393.662, 650.003 448.500 C 675.700 514.162, 697.099 550.209, 729.197 581.904 C 746.809 599.295, 759.654 607.732, 782.470 616.896 L 792.440 620.900 798.199 599.700 C 803.488 580.225, 808.456 553.622, 810.591 533.331 C 811.203 527.514, 811.060 526.910, 808.088 522.772 C 802.665 515.221, 802.703 508.686, 808.205 502.420 L 811.381 498.803 809.097 482.651 C 804.794 452.226, 794.147 417.086, 781.425 391.325 C 768.504 365.162, 751.569 341.922, 729.297 319.790 C 704.394 295.045, 682.244 279.121, 651.112 263.583 C 627.675 251.886, 586.357 239.604, 556.723 235.525 C 550.795 234.709, 545.087 233.582, 544.039 233.021 C 541.331 231.572, 541.072 231.680, 539.906 234.748 M 510 325.915 C 501.846 328.157, 492.105 332.152, 486.111 335.710 C 483.575 337.216, 481.275 338.461, 481 338.478 C 480.725 338.495, 478.233 339.906, 475.462 341.615 C 469.701 345.166, 457.055 357.572, 453.153 363.500 C 451.704 365.700, 449.947 367.863, 449.248 368.306 C 448.549 368.750, 446.841 371.225, 445.453 373.806 C 444.065 376.388, 440.906 381.200, 438.432 384.500 C 435.958 387.800, 432.447 393.425, 430.629 397 C 428.812 400.575, 426.384 405.300, 425.235 407.500 C 421.054 415.506, 417.009 424.981, 407.521 449 C 394.170 482.796, 394.967 480.959, 383.693 503.915 C 363.722 544.582, 350.801 563.406, 325.593 588.557 C 302.186 611.912, 288.404 621.549, 267.701 629.041 C 262.916 630.772, 258.782 632.543, 258.514 632.977 C 256.904 635.583, 279.480 673.032, 291.147 687.105 C 299.688 697.408, 322.618 720.495, 334.333 730.587 C 375.162 765.759, 428.622 788.798, 488.500 797.027 C 501.396 798.799, 502.579 798.822, 503.500 797.321 C 506.222 792.885, 510.853 788.563, 514.609 786.953 L 518.786 785.163 518.486 752.332 C 518.321 734.274, 518.144 704.580, 518.093 686.344 L 518 653.188 513.388 651.617 C 509.348 650.240, 498.287 650.033, 424.138 649.948 C 377.587 649.895, 338.375 649.773, 337 649.676 C 334.022 649.466, 332.558 648.254, 331.807 645.374 C 331.308 643.462, 331.767 643.187, 336.376 642.633 C 339.194 642.294, 379.172 642.013, 425.215 642.009 C 507.401 642, 508.949 641.964, 509.981 640.035 C 510.559 638.955, 512.713 637.567, 514.766 636.951 L 518.500 635.832 518.522 592.666 C 518.546 545.262, 518.879 540.510, 522.190 540.261 C 523.361 540.172, 524.635 539.590, 525.021 538.966 C 526.951 535.843, 527.478 545.152, 527.789 587.850 L 528.127 634.201 532.313 638.225 L 536.500 642.249 614.500 642.178 C 657.400 642.139, 694.750 642.473, 697.500 642.920 C 700.428 643.396, 701.373 643.788, 699.781 643.866 C 698.066 643.951, 697.232 644.461, 697.521 645.250 C 697.773 645.938, 697.550 647.175, 697.026 648 C 696.271 649.189, 692.697 649.625, 679.787 650.104 C 656.891 650.954, 537.562 650.096, 537.207 649.079 C 537.045 648.618, 535.633 649.424, 534.068 650.870 C 532.503 652.317, 530.563 654.019, 529.756 654.654 C 528.507 655.638, 528.223 664.444, 527.840 714.154 C 527.593 746.244, 527.640 775.509, 527.945 779.186 C 528.482 785.657, 528.635 785.968, 532.705 788.909 C 535.018 790.580, 537.906 793.677, 539.122 795.792 L 541.335 799.636 554.865 797.846 C 579.089 794.641, 592.947 791.550, 614.023 784.652 C 643.517 775, 663.942 764.733, 692.500 745.207 C 725.298 722.781, 762.283 681.232, 779.918 647 C 782.326 642.325, 785.179 637.237, 786.257 635.692 C 787.336 634.148, 788.057 632.742, 787.859 632.567 C 787.662 632.392, 783.900 631.118, 779.500 629.735 C 748.462 619.979, 720.406 597.056, 692.310 558.500 C 675.766 535.797, 657.425 500.392, 641.023 459.500 C 622.100 412.320, 615.558 398.647, 602.508 379 C 587.968 357.109, 569.532 340.315, 549.794 330.980 C 543.777 328.134, 529.476 324.191, 528.545 325.121 C 528.281 325.386, 528.020 363.325, 527.966 409.432 L 527.867 493.261 531.725 494.988 C 536.956 497.330, 540.610 501.956, 541.870 507.828 C 543.293 514.464, 541.943 518.765, 536.580 524.685 L 532.219 529.500 523.860 529.499 C 514.244 529.498, 510.594 527.908, 506.437 521.909 C 499.508 511.910, 504.135 498.182, 515.508 494.998 C 519.199 493.964, 519.945 493.395, 519.302 492.106 C 518.861 491.223, 518.435 453.166, 518.356 407.535 C 518.277 361.905, 517.827 324.471, 517.356 324.349 C 516.885 324.227, 513.575 324.931, 510 325.915 M 692.769 380.754 C 691.772 380.976, 690.536 382.815, 689.854 385.093 C 688.732 388.839, 688.821 389.203, 691.561 392.064 C 693.152 393.724, 696.618 396.472, 699.265 398.170 C 703.604 400.954, 703.930 401.417, 702.586 402.879 C 701.766 403.770, 698.597 407.131, 695.543 410.346 C 688.862 417.381, 687.728 420.552, 690.960 423.169 C 692.204 424.176, 693.991 425, 694.932 425 C 695.873 425, 700.635 421.105, 705.514 416.345 L 714.386 407.690 715.443 410.719 C 717.199 415.749, 722.119 422.733, 724.752 423.933 C 726.115 424.554, 728.083 424.791, 729.126 424.460 C 731.081 423.839, 734 419.183, 734 416.685 C 734 413.798, 729.802 410.087, 723.988 407.832 C 720.695 406.555, 718 405.189, 718 404.797 C 718 404.405, 721.600 400.528, 726 396.181 C 730.400 391.834, 734 387.786, 734 387.185 C 734 384.635, 731.491 380.910, 729.423 380.391 C 726.288 379.605, 722.844 382.158, 716.985 389.614 C 714.225 393.126, 711.313 396, 710.514 396 C 709.715 396, 707.534 393.637, 705.667 390.750 C 700.591 382.901, 696.694 379.881, 692.769 380.754 M 240.217 886.546 C 232.721 887.962, 231.923 888.557, 234.810 890.580 C 236.551 891.799, 237 893.107, 237 896.963 L 237 901.813 233.614 900.774 C 223.332 897.618, 214.011 906.284, 214.011 919 C 214.011 924.588, 215.965 930.119, 219.017 933.171 C 221.343 935.497, 222.705 935.999, 226.673 935.996 C 229.693 935.994, 232.697 935.263, 234.697 934.043 C 237.868 932.110, 237.900 932.110, 238.515 934.047 C 239.045 935.718, 240.064 936, 245.567 936 C 252.084 936, 253.639 934.948, 250 933 C 248.089 931.977, 248 930.906, 248 909.024 C 248 896.426, 247.662 885.947, 247.250 885.739 C 246.838 885.530, 243.673 885.893, 240.217 886.546 M 367.960 886.831 C 364.993 889.234, 365.855 893.496, 369.491 894.408 C 376.088 896.064, 380.763 890.656, 376.040 886.831 C 374.796 885.824, 372.978 885, 372 885 C 371.022 885, 369.204 885.824, 367.960 886.831 M 496.411 886.371 C 495.333 889.180, 496.482 891.152, 501.246 894.675 C 505.163 897.573, 506.097 897.911, 506.594 896.615 C 507.478 894.312, 501.799 885.567, 499.167 885.180 C 497.914 884.995, 496.745 885.501, 496.411 886.371 M 549.077 886.477 C 542.292 887.600, 540.528 889.142, 543.939 890.967 C 545.914 892.024, 546 892.898, 546 911.968 C 546 930.987, 545.912 931.893, 544 932.500 C 542.900 932.849, 542 933.779, 542 934.567 C 542 935.710, 543.921 936, 551.500 936 C 559.079 936, 561 935.710, 561 934.567 C 561 933.779, 560.100 932.849, 559 932.500 C 557.900 932.151, 556.984 931.333, 556.964 930.683 C 556.945 930.032, 556.960 919.749, 556.998 907.830 C 557.037 895.912, 556.715 885.992, 556.284 885.788 C 555.853 885.583, 552.610 885.893, 549.077 886.477 M 754.536 886.960 C 751.730 890.061, 753.192 893.758, 757.548 894.575 C 763.553 895.702, 767.314 890.404, 763.171 886.655 C 760.707 884.425, 756.703 884.566, 754.536 886.960 M 840 885.729 C 834.679 887.755, 836.958 895, 842.916 895 C 845.868 895, 849 892.337, 849 889.826 C 849 886.386, 844.115 884.162, 840 885.729 M 41 888.339 C 41 889.076, 42.125 890.192, 43.500 890.818 L 46 891.957 46 911.500 L 46 931.043 43.500 932.182 C 42.125 932.808, 41 933.924, 41 934.661 C 41 935.695, 43.393 936, 51.500 936 C 60.107 936, 62 935.733, 62 934.519 C 62 933.705, 60.866 932.753, 59.480 932.406 L 56.959 931.773 57.230 911.636 C 57.496 891.835, 57.537 891.484, 59.750 890.513 C 60.987 889.970, 62 888.957, 62 888.263 C 62 887.326, 59.290 887, 51.500 887 C 43.393 887, 41 887.305, 41 888.339 M 626.778 889.203 C 622.951 891.422, 620 896.123, 620 900 C 620 905.105, 623.255 909.209, 631.540 914.554 C 639.967 919.990, 641 921.228, 641 925.891 C 641 930.408, 638.758 932.486, 634.017 932.362 C 628.802 932.225, 627.903 931.317, 627.251 925.534 C 626.744 921.035, 626.633 920.903, 623.614 921.197 C 620.579 921.492, 620.493 921.641, 620.205 927.069 C 619.928 932.311, 620.075 932.716, 622.705 933.952 C 624.242 934.674, 628.728 935.488, 632.673 935.759 C 638.651 936.171, 640.592 935.892, 644.330 934.082 C 651.587 930.569, 653.649 924.229, 650.087 916.385 C 648.613 913.138, 646.406 911.076, 639.622 906.609 C 630.938 900.890, 629.099 898.413, 630.429 894.224 C 630.764 893.168, 632.229 891.761, 633.683 891.098 C 637.863 889.194, 641.551 891.257, 643.611 896.653 C 644.960 900.185, 645.740 901.037, 647.405 900.799 C 649.062 900.563, 649.631 899.559, 650.125 896 C 650.885 890.523, 650.184 889.536, 644.527 888.111 C 637.574 886.360, 630.983 886.766, 626.778 889.203 M 118.240 896.976 C 116.996 898.552, 114.634 900.437, 112.990 901.165 C 109.241 902.824, 108.920 906, 112.500 906 L 115 906 115 918.545 C 115 930.532, 115.109 931.200, 117.455 933.545 C 119.348 935.439, 120.959 936, 124.504 936 C 129.670 936, 135 933.702, 135 931.474 C 135 929.721, 134.512 929.655, 131.896 931.055 C 130.812 931.636, 129.041 931.831, 127.962 931.488 C 126.151 930.913, 126 929.907, 126 918.433 L 126 906 130.500 906 C 134.633 906, 135 905.796, 135 903.500 C 135 901.204, 134.633 901, 130.500 901 C 126.024 901, 126 900.981, 126 897.500 C 126 894.335, 125.737 894.005, 123.250 894.055 C 121.458 894.091, 119.712 895.109, 118.240 896.976 M 342.240 896.947 C 340.996 898.539, 338.634 900.437, 336.990 901.165 C 333.241 902.824, 332.920 906, 336.500 906 L 339 906 339 918.545 C 339 930.532, 339.109 931.200, 341.455 933.545 C 343.348 935.439, 344.959 936, 348.504 936 C 353.670 936, 359 933.702, 359 931.474 C 359 929.721, 358.512 929.655, 355.896 931.055 C 354.812 931.636, 353.041 931.831, 351.962 931.488 C 350.151 930.913, 350 929.907, 350 918.433 L 350 906 354.500 906 C 358.633 906, 359 905.796, 359 903.500 C 359 901.209, 358.629 901, 354.563 901 C 350.289 901, 350.115 900.881, 349.813 897.750 C 349.379 893.245, 345.455 892.829, 342.240 896.947 M 663.240 896.976 C 661.996 898.552, 659.634 900.437, 657.990 901.165 C 654.241 902.824, 653.920 906, 657.500 906 L 660 906 660 918.545 C 660 930.532, 660.109 931.200, 662.455 933.545 C 664.258 935.349, 665.991 936, 668.987 936 C 674.207 936, 680 933.604, 680 931.444 C 680 930.257, 679.503 929.991, 678.250 930.506 C 671.683 933.210, 671.136 932.377, 670.999 919.477 C 670.935 913.440, 670.909 907.938, 670.942 907.250 C 670.979 906.444, 672.598 906, 675.500 906 C 679.633 906, 680 905.796, 680 903.500 C 680 901.204, 679.633 901, 675.500 901 C 671.024 901, 671 900.981, 671 897.500 C 671 894.335, 670.737 894.005, 668.250 894.055 C 666.458 894.091, 664.712 895.109, 663.240 896.976 M 729.240 896.976 C 727.996 898.552, 725.634 900.437, 723.990 901.165 C 720.291 902.802, 719.914 906, 723.421 906 L 725.841 906 726.171 919.091 C 726.481 931.445, 726.633 932.289, 728.861 934.091 C 733.084 937.506, 746 935.512, 746 931.444 C 746 930.257, 745.503 929.991, 744.250 930.506 C 740.536 932.036, 739.322 932.093, 738.240 930.789 C 737.351 929.718, 736.553 915.279, 736.940 907.250 C 736.979 906.444, 738.599 906, 741.500 906 C 745.633 906, 746 905.796, 746 903.500 C 746 901.204, 745.633 901, 741.500 901 C 737.024 901, 737 900.981, 737 897.500 C 737 894.335, 736.737 894.005, 734.250 894.055 C 732.458 894.091, 730.712 895.109, 729.240 896.976 M 813.658 896.591 C 812.645 897.982, 810.282 899.851, 808.408 900.745 C 804.322 902.694, 803.700 906, 807.421 906 L 809.841 906 810.171 919.091 C 810.481 931.445, 810.633 932.289, 812.861 934.091 C 817.010 937.447, 830 935.522, 830 931.551 C 830 929.720, 829.532 929.645, 826.896 931.055 C 825.812 931.636, 824.041 931.831, 822.962 931.488 C 821.151 930.913, 821 929.907, 821 918.433 L 821 906 825.500 906 C 829.633 906, 830 905.796, 830 903.500 C 830 901.204, 829.633 901, 825.500 901 C 821.024 901, 821 900.981, 821 897.500 C 821 894.341, 820.732 894.003, 818.250 894.031 C 816.485 894.052, 814.840 894.968, 813.658 896.591 M 74.081 901.374 C 68.182 902.613, 66.714 904.241, 69.939 905.967 C 71.850 906.990, 72 907.972, 72 919.468 C 72 930.987, 71.858 931.910, 70 932.500 C 68.900 932.849, 68 933.796, 68 934.605 C 68 935.812, 69.638 936.024, 77.169 935.788 C 82.823 935.610, 86.481 935.070, 86.710 934.377 C 86.914 933.760, 86.163 933.014, 85.041 932.721 C 83.130 932.221, 83 931.426, 83 920.249 C 83 909.953, 83.252 908.082, 84.829 906.655 C 87.287 904.430, 90.696 904.563, 91.965 906.934 C 92.534 907.998, 93 914.087, 93 920.466 C 93 929.852, 92.714 932.173, 91.500 932.638 C 90.675 932.955, 90 933.841, 90 934.607 C 90 935.694, 91.974 936, 99 936 C 106.145 936, 108 935.705, 108 934.567 C 108 933.779, 107.154 932.866, 106.120 932.538 C 104.444 932.006, 104.195 930.598, 103.829 919.615 C 103.374 905.947, 102.390 903.233, 97.094 901.039 C 93.352 899.489, 88.117 900.333, 84.673 903.042 L 82.143 905.032 81.822 902.845 C 81.418 900.100, 80.753 899.973, 74.081 901.374 M 144.750 901.249 C 140.985 901.889, 139 902.706, 139 903.614 C 139 904.376, 139.627 905, 140.393 905 C 142.591 905, 143 907.356, 143 920.014 C 143 930.987, 142.852 931.912, 141 932.500 C 139.900 932.849, 139 933.779, 139 934.567 C 139 935.710, 140.921 936, 148.500 936 C 156.079 936, 158 935.710, 158 934.567 C 158 933.779, 157.100 932.849, 156 932.500 C 154.149 931.913, 154 930.987, 154 920.088 C 154 909.732, 154.232 908.100, 155.926 906.567 C 158.716 904.042, 161.510 904.923, 161.458 908.311 C 161.399 912.188, 165.561 913.261, 168.169 910.040 C 170.612 907.022, 170.478 905.387, 167.545 902.455 C 164.443 899.352, 161.246 899.344, 156.700 902.429 C 153.144 904.842, 153.118 904.844, 152.810 902.757 C 152.424 900.144, 151.862 900.039, 144.750 901.249 M 182.333 901.097 C 169.969 904.677, 168.582 928.777, 180.417 934.394 C 182.295 935.285, 186.339 936, 189.500 936 C 199.859 936, 205.210 931.433, 206.533 921.464 C 207.342 915.361, 205.802 909.107, 202.533 905.222 C 198.674 900.635, 190.027 898.870, 182.333 901.097 M 263.578 901.401 C 257.230 902.613, 255.624 904.193, 258.939 905.967 C 260.809 906.968, 261 907.996, 261 917.067 C 261 927.872, 262.415 933.081, 265.850 934.920 C 269.223 936.725, 276.437 936.231, 279.273 934 C 280.671 932.900, 282.029 932, 282.291 932 C 282.553 932, 283.002 932.900, 283.290 934 C 283.751 935.763, 284.654 936, 290.906 936 C 296.392 936, 298 935.676, 298 934.570 C 298 933.783, 296.988 932.995, 295.750 932.820 C 293.548 932.507, 293.489 932.158, 293 916.500 C 292.725 907.700, 292.155 900.563, 291.733 900.639 C 291.312 900.715, 288.837 901.079, 286.233 901.446 C 280.013 902.324, 278 902.948, 278 904 C 278 904.476, 278.900 905.151, 280 905.500 C 281.845 906.085, 282 907.013, 282 917.445 C 282 929.139, 281.690 930.099, 277.500 931.355 C 273.114 932.670, 272.530 930.974, 272 915.370 C 271.708 906.768, 271.085 900.580, 270.500 900.466 C 269.950 900.358, 266.835 900.779, 263.578 901.401 M 312.122 901.315 C 305.230 903.929, 301.261 912.070, 302.356 921.347 C 303.502 931.053, 309.065 936, 318.833 936 C 326.389 936, 333.735 932.335, 331.220 929.820 C 330.545 929.145, 329.364 929.371, 327.632 930.505 C 323.430 933.259, 318.162 932.889, 315.372 929.646 C 313.256 927.186, 313 925.917, 313 917.895 C 313 906.893, 314.652 902.709, 318.807 903.189 C 321.080 903.451, 321.552 904.045, 321.831 906.991 C 322.014 908.911, 322.689 910.817, 323.331 911.226 C 327.057 913.596, 332.764 909.982, 331.514 906.045 C 331.148 904.891, 329.792 903.255, 328.502 902.409 C 325.336 900.335, 316.298 899.731, 312.122 901.315 M 366.750 901.226 C 361.857 902.246, 360.429 904.356, 364 905.290 C 365.870 905.779, 366 906.654, 366 918.799 C 366 929.421, 365.727 931.891, 364.500 932.362 C 363.675 932.678, 363 933.643, 363 934.506 C 363 935.838, 364.384 936.032, 372.169 935.788 C 381.279 935.502, 384.889 933.942, 379.544 932.600 L 377 931.962 377 915.981 L 377 900 374.250 900.118 C 372.738 900.183, 369.363 900.682, 366.750 901.226 M 396.122 901.314 C 389.237 903.928, 385.261 912.070, 386.353 921.319 C 387.515 931.159, 393.169 936, 403.500 936 C 415.109 936, 420.500 930.450, 420.500 918.500 C 420.500 910.799, 418.603 906.276, 413.903 902.774 C 410.629 900.334, 400.823 899.528, 396.122 901.314 M 434.081 901.374 C 428.182 902.613, 426.714 904.241, 429.939 905.967 C 431.850 906.990, 432 907.972, 432 919.468 C 432 930.987, 431.858 931.910, 430 932.500 C 428.900 932.849, 428 933.796, 428 934.605 C 428 935.812, 429.638 936.024, 437.169 935.788 C 442.823 935.610, 446.481 935.070, 446.710 934.377 C 446.914 933.760, 446.163 933.014, 445.041 932.721 C 443.130 932.221, 443 931.426, 443 920.249 C 443 909.953, 443.252 908.082, 444.829 906.655 C 446.977 904.711, 450.107 904.507, 451.800 906.200 C 452.604 907.004, 453 911.474, 453 919.731 C 453 929.770, 452.721 932.170, 451.500 932.638 C 450.675 932.955, 450 933.841, 450 934.607 C 450 935.694, 451.974 936, 459 936 C 466.145 936, 468 935.705, 468 934.567 C 468 933.779, 467.154 932.866, 466.120 932.538 C 464.444 932.006, 464.195 930.598, 463.829 919.615 C 463.374 905.947, 462.390 903.233, 457.094 901.039 C 453.352 899.489, 448.117 900.333, 444.673 903.042 L 442.143 905.032 441.822 902.845 C 441.418 900.100, 440.753 899.973, 434.081 901.374 M 495.524 901.294 C 490.432 902.903, 488.066 906.655, 489.776 910.407 C 490.641 912.306, 491.712 913, 493.779 913 C 497.634 913, 498.938 911.393, 498.295 907.432 C 497.809 904.434, 498.033 904.030, 500.532 903.403 C 504.933 902.298, 506.461 903.977, 506.798 910.285 L 507.096 915.863 502.298 916.513 C 492.204 917.879, 488.809 919.883, 487.465 925.269 C 486.641 928.568, 488.527 933.677, 491.071 935.038 C 494.076 936.646, 501.268 936.134, 504.653 934.070 C 507.764 932.173, 507.812 932.173, 508.309 934.074 C 508.742 935.730, 509.738 936, 515.406 936 C 520.354 936, 522 935.655, 522 934.617 C 522 933.856, 521.100 932.998, 520 932.710 C 518.146 932.225, 518 931.346, 518 920.641 C 518 907.774, 517.083 904.611, 512.693 902.341 C 508.711 900.282, 500.340 899.771, 495.524 901.294 M 574.073 900.672 C 568.139 901.927, 564.779 906.850, 567.011 911.021 C 568.217 913.275, 573.393 913.767, 574.679 911.750 C 575.118 911.063, 575.482 908.925, 575.488 907 C 575.499 903.824, 575.786 903.472, 578.585 903.199 C 580.284 903.033, 582.168 903.498, 582.778 904.232 C 583.962 905.659, 584.760 914.573, 583.792 915.542 C 583.472 915.861, 580.375 916.523, 576.909 917.013 C 573.442 917.503, 569.485 918.740, 568.116 919.763 C 563.427 923.263, 562.918 929.918, 567.025 934.025 C 569.724 936.724, 577.141 936.694, 581.554 933.967 L 584.844 931.933 585.489 933.967 C 586.050 935.734, 586.978 936, 592.567 936 C 597.378 936, 599 935.651, 599 934.617 C 599 933.856, 598.100 932.998, 597 932.710 C 595.154 932.227, 595 931.346, 595 921.243 C 595 908.418, 593.923 904.529, 589.779 902.386 C 586.595 900.739, 578.127 899.815, 574.073 900.672 M 691.513 901.448 C 687.431 902.963, 685 905.317, 685 907.757 C 685 910.698, 687.107 913, 689.785 912.985 C 693.887 912.962, 695.219 911.720, 694.446 908.642 C 693.641 905.435, 695.357 903, 698.422 903 C 701.821 903, 703 904.967, 703 910.639 L 703 915.877 698.250 916.520 C 688.208 917.877, 684.807 919.890, 683.465 925.269 C 682.641 928.568, 684.527 933.677, 687.071 935.038 C 690.145 936.683, 697.046 936.135, 700.554 933.967 L 703.844 931.933 704.489 933.967 C 705.050 935.734, 705.978 936, 711.567 936 C 716.378 936, 718 935.651, 718 934.617 C 718 933.856, 717.100 932.998, 716 932.710 C 714.146 932.225, 714 931.346, 714 920.641 C 714 907.774, 713.083 904.611, 708.693 902.341 C 704.424 900.134, 696.206 899.706, 691.513 901.448 M 757.500 900.497 C 756.950 900.684, 754.813 901.118, 752.750 901.463 C 748.745 902.133, 747.660 904.416, 750.939 905.274 C 752.704 905.735, 752.907 906.892, 753.189 918.118 C 753.460 928.871, 753.275 930.646, 751.750 931.949 C 747.899 935.239, 749.543 936.089, 759.169 935.788 C 768.279 935.502, 771.889 933.942, 766.544 932.600 L 764 931.962 764 915.981 L 764 900 761.250 900.079 C 759.737 900.122, 758.050 900.311, 757.500 900.497 M 780.313 901.102 C 775.675 902.444, 772.684 906.662, 773.370 910.893 C 774.093 915.346, 777.073 918.384, 782.823 920.529 C 788.746 922.738, 791 924.697, 791 927.632 C 791 930.474, 787.246 933.139, 784.320 932.373 C 782.205 931.820, 781.040 929.388, 781.014 925.474 C 781.002 923.714, 780.473 923.497, 777 923.829 C 773.073 924.203, 773 924.282, 773 928.161 C 773 931.901, 773.249 932.223, 777.643 934.166 C 783.555 936.781, 792.669 936.384, 796.755 933.333 C 800.638 930.435, 801.757 925.811, 799.647 921.386 C 798.368 918.705, 796.621 917.269, 792.237 915.297 C 785.148 912.109, 783 910.307, 783 907.545 C 783 900.832, 791.329 901.792, 793.449 908.750 C 793.906 910.249, 794.918 911, 796.479 911 C 798.442 911, 798.936 910.337, 799.511 906.933 C 799.889 904.696, 800.007 902.674, 799.773 902.440 C 799.072 901.738, 788.925 899.993, 786.114 900.090 C 784.676 900.140, 782.066 900.595, 780.313 901.102 M 841.500 900.497 C 840.950 900.684, 838.813 901.118, 836.750 901.463 C 832.712 902.139, 831.669 904.419, 835 905.290 C 836.872 905.779, 837 906.654, 837 918.938 C 837 929.682, 836.728 932.167, 835.500 932.638 C 834.675 932.955, 834 933.858, 834 934.645 C 834 935.802, 835.749 936.020, 843.169 935.788 C 852.279 935.502, 855.889 933.942, 850.544 932.600 L 848 931.962 848 915.981 L 848 900 845.250 900.079 C 843.737 900.122, 842.050 900.311, 841.500 900.497 M 867.333 901.097 C 860.580 903.052, 856.266 912.070, 857.412 921.836 C 858.207 928.617, 860.252 932.562, 863.967 934.483 C 867.657 936.391, 873.666 936.423, 877.250 934.553 L 880 933.119 880 940.040 C 880 946.589, 879.865 946.996, 877.500 947.589 C 876.125 947.934, 875 948.843, 875 949.608 C 875 950.704, 877.124 951, 885 951 C 892.848 951, 895 950.702, 895 949.617 C 895 948.856, 894.100 947.998, 893 947.710 C 891.071 947.206, 891 946.346, 891 923.594 L 891 900 888.050 900 C 886.427 900, 884.714 900.688, 884.243 901.530 C 883.475 902.903, 883.012 902.903, 879.726 901.530 C 875.676 899.838, 872.113 899.713, 867.333 901.097 M 906.082 901.433 C 899.309 902.559, 897.519 904.137, 900.939 905.967 C 902.809 906.968, 903 907.996, 903 917.067 C 903 927.872, 904.415 933.081, 907.850 934.920 C 911.223 936.725, 918.437 936.231, 921.273 934 C 922.671 932.900, 924.029 932, 924.291 932 C 924.553 932, 925.002 932.900, 925.290 934 C 925.751 935.763, 926.654 936, 932.906 936 C 938.300 936, 940 935.666, 940 934.608 C 940 933.843, 938.875 932.934, 937.500 932.589 L 935 931.962 935 916.648 C 935 908.225, 934.771 901.105, 934.492 900.825 C 933.894 900.227, 921.162 902.505, 920.303 903.364 C 919.981 903.686, 920.699 904.749, 921.899 905.725 C 923.938 907.384, 924.062 908.221, 923.790 918.489 C 923.503 929.353, 923.469 929.492, 920.769 930.784 C 918.749 931.751, 917.513 931.810, 916.019 931.010 C 914.137 930.003, 914 928.952, 914 915.524 C 914 907.601, 913.663 900.949, 913.250 900.742 C 912.837 900.535, 909.612 900.845, 906.082 901.433 M 954.500 901.505 C 947.248 904.074, 943.242 911.910, 944.356 921.347 C 945.092 927.576, 947.609 931.798, 951.984 934.137 C 958.253 937.489, 970.172 936.116, 973.908 931.613 C 976.183 928.869, 973.811 927.422, 970.545 929.562 C 969.077 930.524, 965.840 931.354, 963.350 931.406 C 957.543 931.527, 955 928.781, 955 922.389 L 955 918 964.878 918 C 976.114 918, 977.636 917.190, 976.610 911.761 C 975.557 906.186, 972.482 902.228, 968.302 901.067 C 963.252 899.665, 959.344 899.789, 954.500 901.505 M 185.573 905.570 C 183.261 907.882, 182.753 910.995, 183.147 920.445 C 183.538 929.834, 184.838 932.250, 189.500 932.250 C 194.162 932.250, 195.462 929.834, 195.853 920.445 C 196.366 908.152, 194.762 904, 189.500 904 C 188.204 904, 186.436 904.706, 185.573 905.570 M 228.736 905.250 C 226.087 907.262, 225 911.586, 225 920.111 C 225 927.240, 225.260 928.351, 227.443 930.534 C 230.362 933.453, 233.786 932.750, 235.717 928.834 C 237.008 926.215, 237.685 906.917, 236.550 905.080 C 235.640 903.609, 230.757 903.715, 228.736 905.250 M 398.987 906.744 C 397.047 909.210, 396.862 910.475, 397.164 919.211 C 397.515 929.373, 398.231 931.107, 402.611 932.416 C 403.964 932.820, 405.579 932.352, 407.111 931.112 C 409.232 929.394, 409.539 928.212, 409.853 920.569 C 410.048 915.834, 409.935 910.876, 409.602 909.550 C 408.126 903.671, 402.561 902.200, 398.987 906.744 M 871.086 905.914 C 868.294 908.706, 867.727 911.643, 868.156 921.089 C 868.476 928.148, 868.827 929.442, 870.873 931.098 C 873.783 933.455, 874.215 933.456, 877.108 931.113 C 879.199 929.421, 879.493 928.167, 879.969 918.926 C 880.286 912.779, 880.087 907.793, 879.477 906.562 C 878.064 903.715, 873.628 903.372, 871.086 905.914 M 957 906 C 955.762 907.238, 955 909.333, 955 911.500 L 955 915 960.500 915 L 966 915 966 911.071 C 966 904.553, 961.169 901.831, 957 906 M 503.500 919.834 C 499.304 920.300, 497 922.706, 497 926.620 C 497 931.049, 499.812 932.666, 503.867 930.569 C 506.895 929.003, 507.936 926.189, 507.037 922 C 506.587 919.904, 506.015 919.554, 503.500 919.834 M 580.500 919.733 C 576.259 920.347, 574 922.740, 574 926.620 C 574 931.103, 576.812 932.665, 580.991 930.505 C 583.725 929.091, 584 928.493, 584 923.974 C 584 921.238, 583.888 919.067, 583.750 919.150 C 583.612 919.232, 582.150 919.495, 580.500 919.733 M 694.655 921.829 C 692.308 924.422, 692.500 929.662, 694.991 930.995 C 696.490 931.797, 697.726 931.676, 699.991 930.505 C 702.656 929.126, 703 928.437, 703 924.474 C 703 920.067, 702.950 920, 699.655 920 C 697.684 920, 695.630 920.751, 694.655 921.829" stroke="none" fill="#0c2236" fill-rule="evenodd"/><path d="M 0 512.001 L 0 1024.002 512.250 1023.751 L 1024.500 1023.500 1024.751 511.750 L 1025.002 0 512.501 0 L 0 0 0 512.001 M 0.496 512.500 C 0.496 794.100, 0.610 909.151, 0.750 768.168 C 0.890 627.186, 0.890 396.786, 0.750 256.168 C 0.610 115.551, 0.496 230.900, 0.496 512.500 M 516.371 209.087 C 512.623 210.174, 507.271 215.315, 505.432 219.594 L 504.103 222.689 493.302 223.327 C 468.167 224.811, 432.564 233.768, 403.500 245.920 C 346.001 269.959, 297.362 312.325, 264.349 367.125 C 252.885 386.155, 243.190 407.634, 236.487 428.853 C 231.568 444.422, 225.623 475.378, 224.305 492.282 C 223.746 499.459, 223.480 500.194, 220.892 501.723 C 217.429 503.769, 215.662 507.832, 215.570 513.963 C 215.515 517.607, 216.164 519.597, 218.500 522.961 C 223.577 530.270, 223.970 531.310, 223.993 537.500 C 224.062 555.674, 232.175 599.144, 238.447 614.947 C 239.854 618.493, 240.667 621.733, 240.253 622.147 C 239.839 622.561, 233.875 624.087, 227 625.539 C 220.125 626.991, 211.800 628.772, 208.500 629.499 C 202.742 630.766, 202.399 630.728, 200 628.563 C 195.136 624.173, 192.566 623, 187.812 623 C 183.919 623, 182.427 623.564, 179.484 626.148 C 177.511 627.880, 175.246 630.558, 174.449 632.099 C 168.900 642.829, 180.111 656.759, 191.319 653.060 C 195.197 651.780, 200.429 646.688, 201.914 642.750 C 202.883 640.179, 203.334 640, 208.830 640 C 215.590 640, 239.239 638.235, 243.092 637.443 C 245.503 636.948, 246.061 637.614, 251.092 647.009 C 262.379 668.086, 281.123 694.355, 298.285 713.146 C 313.153 729.428, 323.616 738.584, 346.851 755.649 C 353.784 760.741, 378.264 775.614, 386.690 779.854 C 404.155 788.641, 443.545 801.678, 464 805.440 C 471.986 806.909, 492.555 808.949, 499.733 808.984 C 502.602 808.998, 503.251 809.562, 505.498 813.995 C 510.690 824.241, 521.589 827.666, 532 822.323 C 536.284 820.124, 538.038 818.481, 539.935 814.891 L 542.370 810.281 552.435 809.652 C 569.479 808.586, 591.196 803.917, 618.631 795.421 C 670.630 779.318, 722.359 744.275, 758.286 700.814 C 772.569 683.535, 791.818 653.993, 796.632 641.963 C 798.248 637.922, 798.418 637.808, 801.901 638.416 C 803.881 638.761, 814.125 639.328, 824.667 639.675 L 843.835 640.307 845.600 644.222 C 849.619 653.135, 861.828 653.419, 868.339 644.751 C 873.736 637.566, 872.239 629.983, 864.532 625.466 C 858.158 621.731, 852.763 622.281, 847.334 627.221 C 845.301 629.070, 844.591 629.122, 835.834 628.066 C 820.515 626.218, 805.554 623.798, 804.706 623.031 C 804.269 622.635, 804.822 619.879, 805.934 616.906 C 809.945 606.183, 813.070 594.298, 816.933 575.073 C 820.113 559.248, 824 533.560, 824 528.370 C 824 527.793, 825.147 526.798, 826.549 526.159 C 829.819 524.670, 832.950 517.799, 832.978 512.051 C 832.998 507.993, 832.560 507.189, 828 502.908 C 823.282 498.478, 823 497.929, 823 493.173 C 823 481.270, 814.901 444.727, 807.070 421.294 C 795.499 386.673, 780.362 359.592, 756.303 330.466 C 739.591 310.235, 727.418 298.720, 703.054 280.095 C 662.348 248.977, 596.138 224.434, 550.788 223.651 C 542.335 223.505, 542.012 223.413, 541.128 220.906 C 539.742 216.976, 534.137 211.084, 530.233 209.453 C 526.381 207.843, 521.139 207.705, 516.371 209.087 M 539.906 234.748 C 535.220 247.072, 516.445 248.542, 507.026 237.323 L 503.739 233.407 491.619 235.177 C 451.911 240.974, 422.963 249.527, 392.500 264.462 C 357.445 281.649, 323.676 308.325, 300.158 337.407 C 262.771 383.641, 245.077 425.257, 237.067 485.798 C 235.302 499.136, 235.303 499.205, 237.336 501.098 C 238.458 502.144, 239.706 503, 240.107 503 C 240.508 503, 241.774 504.516, 242.918 506.368 C 247.061 513.070, 244.935 523.375, 238.548 527.561 C 236.423 528.953, 236 530.001, 236 533.871 C 236 550.068, 243.352 591.199, 249.567 609.771 C 250.905 613.770, 252 617.708, 252 618.521 C 252 620.782, 254.254 620.351, 265.590 615.918 C 278.132 611.015, 290.917 602.824, 304.535 590.970 C 344.464 556.209, 368.707 516.667, 401.999 432 C 407.171 418.848, 419.065 394.497, 425.354 384.186 C 434.056 369.919, 447.772 352.370, 457.169 343.481 C 466.955 334.223, 480.025 324.998, 491.537 319.223 C 500.262 314.847, 504.535 313.518, 513 312.548 L 518.501 311.918 518.141 292.873 C 517.694 269.197, 518.489 259.511, 521.094 256.906 C 523.799 254.201, 524.900 254.517, 526.551 258.468 C 527.685 261.181, 528 267.353, 528 286.827 L 528 311.719 538.750 314.368 C 557.538 318.999, 572.923 328.059, 589.859 344.465 C 613.135 367.012, 628.542 393.662, 650.003 448.500 C 675.700 514.162, 697.099 550.209, 729.197 581.904 C 746.809 599.295, 759.654 607.732, 782.470 616.896 L 792.440 620.900 798.199 599.700 C 803.488 580.225, 808.456 553.622, 810.591 533.331 C 811.203 527.514, 811.060 526.910, 808.088 522.772 C 802.665 515.221, 802.703 508.686, 808.205 502.420 L 811.381 498.803 809.097 482.651 C 804.794 452.226, 794.147 417.086, 781.425 391.325 C 768.504 365.162, 751.569 341.922, 729.297 319.790 C 704.394 295.045, 682.244 279.121, 651.112 263.583 C 627.675 251.886, 586.357 239.604, 556.723 235.525 C 550.795 234.709, 545.087 233.582, 544.039 233.021 C 541.331 231.572, 541.072 231.680, 539.906 234.748 M 510 325.915 C 501.846 328.157, 492.105 332.152, 486.111 335.710 C 483.575 337.216, 481.275 338.461, 481 338.478 C 480.725 338.495, 478.233 339.906, 475.462 341.615 C 469.701 345.166, 457.055 357.572, 453.153 363.500 C 451.704 365.700, 449.947 367.863, 449.248 368.306 C 448.549 368.750, 446.841 371.225, 445.453 373.806 C 444.065 376.388, 440.906 381.200, 438.432 384.500 C 435.958 387.800, 432.447 393.425, 430.629 397 C 428.812 400.575, 426.384 405.300, 425.235 407.500 C 421.054 415.506, 417.009 424.981, 407.521 449 C 394.170 482.796, 394.967 480.959, 383.693 503.915 C 363.722 544.582, 350.801 563.406, 325.593 588.557 C 302.186 611.912, 288.404 621.549, 267.701 629.041 C 262.916 630.772, 258.782 632.543, 258.514 632.977 C 256.904 635.583, 279.480 673.032, 291.147 687.105 C 299.688 697.408, 322.618 720.495, 334.333 730.587 C 375.162 765.759, 428.622 788.798, 488.500 797.027 C 501.396 798.799, 502.579 798.822, 503.500 797.321 C 506.222 792.885, 510.853 788.563, 514.609 786.953 L 518.786 785.163 518.486 752.332 C 518.321 734.274, 518.144 704.580, 518.093 686.344 L 518 653.188 513.388 651.617 C 509.348 650.240, 498.287 650.033, 424.138 649.948 C 377.587 649.895, 338.375 649.773, 337 649.676 C 334.022 649.466, 332.558 648.254, 331.807 645.374 C 331.308 643.462, 331.767 643.187, 336.376 642.633 C 339.194 642.294, 379.172 642.013, 425.215 642.009 C 507.401 642, 508.949 641.964, 509.981 640.035 C 510.559 638.955, 512.713 637.567, 514.766 636.951 L 518.500 635.832 518.522 592.666 C 518.546 545.262, 518.879 540.510, 522.190 540.261 C 523.361 540.172, 524.635 539.590, 525.021 538.966 C 526.951 535.843, 527.478 545.152, 527.789 587.850 L 528.127 634.201 532.313 638.225 L 536.500 642.249 614.500 642.178 C 657.400 642.139, 694.750 642.473, 697.500 642.920 C 700.428 643.396, 701.373 643.788, 699.781 643.866 C 698.066 643.951, 697.232 644.461, 697.521 645.250 C 697.773 645.938, 697.550 647.175, 697.026 648 C 696.271 649.189, 692.697 649.625, 679.787 650.104 C 656.891 650.954, 537.562 650.096, 537.207 649.079 C 537.045 648.618, 535.633 649.424, 534.068 650.870 C 532.503 652.317, 530.563 654.019, 529.756 654.654 C 528.507 655.638, 528.223 664.444, 527.840 714.154 C 527.593 746.244, 527.640 775.509, 527.945 779.186 C 528.482 785.657, 528.635 785.968, 532.705 788.909 C 535.018 790.580, 537.906 793.677, 539.122 795.792 L 541.335 799.636 554.865 797.846 C 579.089 794.641, 592.947 791.550, 614.023 784.652 C 643.517 775, 663.942 764.733, 692.500 745.207 C 725.298 722.781, 762.283 681.232, 779.918 647 C 782.326 642.325, 785.179 637.237, 786.257 635.692 C 787.336 634.148, 788.057 632.742, 787.859 632.567 C 787.662 632.392, 783.900 631.118, 779.500 629.735 C 748.462 619.979, 720.406 597.056, 692.310 558.500 C 675.766 535.797, 657.425 500.392, 641.023 459.500 C 622.100 412.320, 615.558 398.647, 602.508 379 C 587.968 357.109, 569.532 340.315, 549.794 330.980 C 543.777 328.134, 529.476 324.191, 528.545 325.121 C 528.281 325.386, 528.020 363.325, 527.966 409.432 L 527.867 493.261 531.725 494.988 C 536.956 497.330, 540.610 501.956, 541.870 507.828 C 543.293 514.464, 541.943 518.765, 536.580 524.685 L 532.219 529.500 523.860 529.499 C 514.244 529.498, 510.594 527.908, 506.437 521.909 C 499.508 511.910, 504.135 498.182, 515.508 494.998 C 519.199 493.964, 519.945 493.395, 519.302 492.106 C 518.861 491.223, 518.435 453.166, 518.356 407.535 C 518.277 361.905, 517.827 324.471, 517.356 324.349 C 516.885 324.227, 513.575 324.931, 510 325.915 M 692.769 380.754 C 691.772 380.976, 690.536 382.815, 689.854 385.093 C 688.732 388.839, 688.821 389.203, 691.561 392.064 C 693.152 393.724, 696.618 396.472, 699.265 398.170 C 703.604 400.954, 703.930 401.417, 702.586 402.879 C 701.766 403.770, 698.597 407.131, 695.543 410.346 C 688.862 417.381, 687.728 420.552, 690.960 423.169 C 692.204 424.176, 693.991 425, 694.932 425 C 695.873 425, 700.635 421.105, 705.514 416.345 L 714.386 407.690 715.443 410.719 C 717.199 415.749, 722.119 422.733, 724.752 423.933 C 726.115 424.554, 728.083 424.791, 729.126 424.460 C 731.081 423.839, 734 419.183, 734 416.685 C 734 413.798, 729.802 410.087, 723.988 407.832 C 720.695 406.555, 718 405.189, 718 404.797 C 718 404.405, 721.600 400.528, 726 396.181 C 730.400 391.834, 734 387.786, 734 387.185 C 734 384.635, 731.491 380.910, 729.423 380.391 C 726.288 379.605, 722.844 382.158, 716.985 389.614 C 714.225 393.126, 711.313 396, 710.514 396 C 709.715 396, 707.534 393.637, 705.667 390.750 C 700.591 382.901, 696.694 379.881, 692.769 380.754 M 240.217 886.546 C 232.721 887.962, 231.923 888.557, 234.810 890.580 C 236.551 891.799, 237 893.107, 237 896.963 L 237 901.813 233.614 900.774 C 223.332 897.618, 214.011 906.284, 214.011 919 C 214.011 924.588, 215.965 930.119, 219.017 933.171 C 221.343 935.497, 222.705 935.999, 226.673 935.996 C 229.693 935.994, 232.697 935.263, 234.697 934.043 C 237.868 932.110, 237.900 932.110, 238.515 934.047 C 239.045 935.718, 240.064 936, 245.567 936 C 252.084 936, 253.639 934.948, 250 933 C 248.089 931.977, 248 930.906, 248 909.024 C 248 896.426, 247.662 885.947, 247.250 885.739 C 246.838 885.530, 243.673 885.893, 240.217 886.546 M 367.960 886.831 C 364.993 889.234, 365.855 893.496, 369.491 894.408 C 376.088 896.064, 380.763 890.656, 376.040 886.831 C 374.796 885.824, 372.978 885, 372 885 C 371.022 885, 369.204 885.824, 367.960 886.831 M 496.411 886.371 C 495.333 889.180, 496.482 891.152, 501.246 894.675 C 505.163 897.573, 506.097 897.911, 506.594 896.615 C 507.478 894.312, 501.799 885.567, 499.167 885.180 C 497.914 884.995, 496.745 885.501, 496.411 886.371 M 549.077 886.477 C 542.292 887.600, 540.528 889.142, 543.939 890.967 C 545.914 892.024, 546 892.898, 546 911.968 C 546 930.987, 545.912 931.893, 544 932.500 C 542.900 932.849, 542 933.779, 542 934.567 C 542 935.710, 543.921 936, 551.500 936 C 559.079 936, 561 935.710, 561 934.567 C 561 933.779, 560.100 932.849, 559 932.500 C 557.900 932.151, 556.984 931.333, 556.964 930.683 C 556.945 930.032, 556.960 919.749, 556.998 907.830 C 557.037 895.912, 556.715 885.992, 556.284 885.788 C 555.853 885.583, 552.610 885.893, 549.077 886.477 M 754.536 886.960 C 751.730 890.061, 753.192 893.758, 757.548 894.575 C 763.553 895.702, 767.314 890.404, 763.171 886.655 C 760.707 884.425, 756.703 884.566, 754.536 886.960 M 840 885.729 C 834.679 887.755, 836.958 895, 842.916 895 C 845.868 895, 849 892.337, 849 889.826 C 849 886.386, 844.115 884.162, 840 885.729 M 41 888.339 C 41 889.076, 42.125 890.192, 43.500 890.818 L 46 891.957 46 911.500 L 46 931.043 43.500 932.182 C 42.125 932.808, 41 933.924, 41 934.661 C 41 935.695, 43.393 936, 51.500 936 C 60.107 936, 62 935.733, 62 934.519 C 62 933.705, 60.866 932.753, 59.480 932.406 L 56.959 931.773 57.230 911.636 C 57.496 891.835, 57.537 891.484, 59.750 890.513 C 60.987 889.970, 62 888.957, 62 888.263 C 62 887.326, 59.290 887, 51.500 887 C 43.393 887, 41 887.305, 41 888.339 M 626.778 889.203 C 622.951 891.422, 620 896.123, 620 900 C 620 905.105, 623.255 909.209, 631.540 914.554 C 639.967 919.990, 641 921.228, 641 925.891 C 641 930.408, 638.758 932.486, 634.017 932.362 C 628.802 932.225, 627.903 931.317, 627.251 925.534 C 626.744 921.035, 626.633 920.903, 623.614 921.197 C 620.579 921.492, 620.493 921.641, 620.205 927.069 C 619.928 932.311, 620.075 932.716, 622.705 933.952 C 624.242 934.674, 628.728 935.488, 632.673 935.759 C 638.651 936.171, 640.592 935.892, 644.330 934.082 C 651.587 930.569, 653.649 924.229, 650.087 916.385 C 648.613 913.138, 646.406 911.076, 639.622 906.609 C 630.938 900.890, 629.099 898.413, 630.429 894.224 C 630.764 893.168, 632.229 891.761, 633.683 891.098 C 637.863 889.194, 641.551 891.257, 643.611 896.653 C 644.960 900.185, 645.740 901.037, 647.405 900.799 C 649.062 900.563, 649.631 899.559, 650.125 896 C 650.885 890.523, 650.184 889.536, 644.527 888.111 C 637.574 886.360, 630.983 886.766, 626.778 889.203 M 118.240 896.976 C 116.996 898.552, 114.634 900.437, 112.990 901.165 C 109.241 902.824, 108.920 906, 112.500 906 L 115 906 115 918.545 C 115 930.532, 115.109 931.200, 117.455 933.545 C 119.348 935.439, 120.959 936, 124.504 936 C 129.670 936, 135 933.702, 135 931.474 C 135 929.721, 134.512 929.655, 131.896 931.055 C 130.812 931.636, 129.041 931.831, 127.962 931.488 C 126.151 930.913, 126 929.907, 126 918.433 L 126 906 130.500 906 C 134.633 906, 135 905.796, 135 903.500 C 135 901.204, 134.633 901, 130.500 901 C 126.024 901, 126 900.981, 126 897.500 C 126 894.335, 125.737 894.005, 123.250 894.055 C 121.458 894.091, 119.712 895.109, 118.240 896.976 M 342.240 896.947 C 340.996 898.539, 338.634 900.437, 336.990 901.165 C 333.241 902.824, 332.920 906, 336.500 906 L 339 906 339 918.545 C 339 930.532, 339.109 931.200, 341.455 933.545 C 343.348 935.439, 344.959 936, 348.504 936 C 353.670 936, 359 933.702, 359 931.474 C 359 929.721, 358.512 929.655, 355.896 931.055 C 354.812 931.636, 353.041 931.831, 351.962 931.488 C 350.151 930.913, 350 929.907, 350 918.433 L 350 906 354.500 906 C 358.633 906, 359 905.796, 359 903.500 C 359 901.209, 358.629 901, 354.563 901 C 350.289 901, 350.115 900.881, 349.813 897.750 C 349.379 893.245, 345.455 892.829, 342.240 896.947 M 663.240 896.976 C 661.996 898.552, 659.634 900.437, 657.990 901.165 C 654.241 902.824, 653.920 906, 657.500 906 L 660 906 660 918.545 C 660 930.532, 660.109 931.200, 662.455 933.545 C 664.258 935.349, 665.991 936, 668.987 936 C 674.207 936, 680 933.604, 680 931.444 C 680 930.257, 679.503 929.991, 678.250 930.506 C 671.683 933.210, 671.136 932.377, 670.999 919.477 C 670.935 913.440, 670.909 907.938, 670.942 907.250 C 670.979 906.444, 672.598 906, 675.500 906 C 679.633 906, 680 905.796, 680 903.500 C 680 901.204, 679.633 901, 675.500 901 C 671.024 901, 671 900.981, 671 897.500 C 671 894.335, 670.737 894.005, 668.250 894.055 C 666.458 894.091, 664.712 895.109, 663.240 896.976 M 729.240 896.976 C 727.996 898.552, 725.634 900.437, 723.990 901.165 C 720.291 902.802, 719.914 906, 723.421 906 L 725.841 906 726.171 919.091 C 726.481 931.445, 726.633 932.289, 728.861 934.091 C 733.084 937.506, 746 935.512, 746 931.444 C 746 930.257, 745.503 929.991, 744.250 930.506 C 740.536 932.036, 739.322 932.093, 738.240 930.789 C 737.351 929.718, 736.553 915.279, 736.940 907.250 C 736.979 906.444, 738.599 906, 741.500 906 C 745.633 906, 746 905.796, 746 903.500 C 746 901.204, 745.633 901, 741.500 901 C 737.024 901, 737 900.981, 737 897.500 C 737 894.335, 736.737 894.005, 734.250 894.055 C 732.458 894.091, 730.712 895.109, 729.240 896.976 M 813.658 896.591 C 812.645 897.982, 810.282 899.851, 808.408 900.745 C 804.322 902.694, 803.700 906, 807.421 906 L 809.841 906 810.171 919.091 C 810.481 931.445, 810.633 932.289, 812.861 934.091 C 817.010 937.447, 830 935.522, 830 931.551 C 830 929.720, 829.532 929.645, 826.896 931.055 C 825.812 931.636, 824.041 931.831, 822.962 931.488 C 821.151 930.913, 821 929.907, 821 918.433 L 821 906 825.500 906 C 829.633 906, 830 905.796, 830 903.500 C 830 901.204, 829.633 901, 825.500 901 C 821.024 901, 821 900.981, 821 897.500 C 821 894.341, 820.732 894.003, 818.250 894.031 C 816.485 894.052, 814.840 894.968, 813.658 896.591 M 74.081 901.374 C 68.182 902.613, 66.714 904.241, 69.939 905.967 C 71.850 906.990, 72 907.972, 72 919.468 C 72 930.987, 71.858 931.910, 70 932.500 C 68.900 932.849, 68 933.796, 68 934.605 C 68 935.812, 69.638 936.024, 77.169 935.788 C 82.823 935.610, 86.481 935.070, 86.710 934.377 C 86.914 933.760, 86.163 933.014, 85.041 932.721 C 83.130 932.221, 83 931.426, 83 920.249 C 83 909.953, 83.252 908.082, 84.829 906.655 C 87.287 904.430, 90.696 904.563, 91.965 906.934 C 92.534 907.998, 93 914.087, 93 920.466 C 93 929.852, 92.714 932.173, 91.500 932.638 C 90.675 932.955, 90 933.841, 90 934.607 C 90 935.694, 91.974 936, 99 936 C 106.145 936, 108 935.705, 108 934.567 C 108 933.779, 107.154 932.866, 106.120 932.538 C 104.444 932.006, 104.195 930.598, 103.829 919.615 C 103.374 905.947, 102.390 903.233, 97.094 901.039 C 93.352 899.489, 88.117 900.333, 84.673 903.042 L 82.143 905.032 81.822 902.845 C 81.418 900.100, 80.753 899.973, 74.081 901.374 M 144.750 901.249 C 140.985 901.889, 139 902.706, 139 903.614 C 139 904.376, 139.627 905, 140.393 905 C 142.591 905, 143 907.356, 143 920.014 C 143 930.987, 142.852 931.912, 141 932.500 C 139.900 932.849, 139 933.779, 139 934.567 C 139 935.710, 140.921 936, 148.500 936 C 156.079 936, 158 935.710, 158 934.567 C 158 933.779, 157.100 932.849, 156 932.500 C 154.149 931.913, 154 930.987, 154 920.088 C 154 909.732, 154.232 908.100, 155.926 906.567 C 158.716 904.042, 161.510 904.923, 161.458 908.311 C 161.399 912.188, 165.561 913.261, 168.169 910.040 C 170.612 907.022, 170.478 905.387, 167.545 902.455 C 164.443 899.352, 161.246 899.344, 156.700 902.429 C 153.144 904.842, 153.118 904.844, 152.810 902.757 C 152.424 900.144, 151.862 900.039, 144.750 901.249 M 182.333 901.097 C 169.969 904.677, 168.582 928.777, 180.417 934.394 C 182.295 935.285, 186.339 936, 189.500 936 C 199.859 936, 205.210 931.433, 206.533 921.464 C 207.342 915.361, 205.802 909.107, 202.533 905.222 C 198.674 900.635, 190.027 898.870, 182.333 901.097 M 263.578 901.401 C 257.230 902.613, 255.624 904.193, 258.939 905.967 C 260.809 906.968, 261 907.996, 261 917.067 C 261 927.872, 262.415 933.081, 265.850 934.920 C 269.223 936.725, 276.437 936.231, 279.273 934 C 280.671 932.900, 282.029 932, 282.291 932 C 282.553 932, 283.002 932.900, 283.290 934 C 283.751 935.763, 284.654 936, 290.906 936 C 296.392 936, 298 935.676, 298 934.570 C 298 933.783, 296.988 932.995, 295.750 932.820 C 293.548 932.507, 293.489 932.158, 293 916.500 C 292.725 907.700, 292.155 900.563, 291.733 900.639 C 291.312 900.715, 288.837 901.079, 286.233 901.446 C 280.013 902.324, 278 902.948, 278 904 C 278 904.476, 278.900 905.151, 280 905.500 C 281.845 906.085, 282 907.013, 282 917.445 C 282 929.139, 281.690 930.099, 277.500 931.355 C 273.114 932.670, 272.530 930.974, 272 915.370 C 271.708 906.768, 271.085 900.580, 270.500 900.466 C 269.950 900.358, 266.835 900.779, 263.578 901.401 M 312.122 901.315 C 305.230 903.929, 301.261 912.070, 302.356 921.347 C 303.502 931.053, 309.065 936, 318.833 936 C 326.389 936, 333.735 932.335, 331.220 929.820 C 330.545 929.145, 329.364 929.371, 327.632 930.505 C 323.430 933.259, 318.162 932.889, 315.372 929.646 C 313.256 927.186, 313 925.917, 313 917.895 C 313 906.893, 314.652 902.709, 318.807 903.189 C 321.080 903.451, 321.552 904.045, 321.831 906.991 C 322.014 908.911, 322.689 910.817, 323.331 911.226 C 327.057 913.596, 332.764 909.982, 331.514 906.045 C 331.148 904.891, 329.792 903.255, 328.502 902.409 C 325.336 900.335, 316.298 899.731, 312.122 901.315 M 366.750 901.226 C 361.857 902.246, 360.429 904.356, 364 905.290 C 365.870 905.779, 366 906.654, 366 918.799 C 366 929.421, 365.727 931.891, 364.500 932.362 C 363.675 932.678, 363 933.643, 363 934.506 C 363 935.838, 364.384 936.032, 372.169 935.788 C 381.279 935.502, 384.889 933.942, 379.544 932.600 L 377 931.962 377 915.981 L 377 900 374.250 900.118 C 372.738 900.183, 369.363 900.682, 366.750 901.226 M 396.122 901.314 C 389.237 903.928, 385.261 912.070, 386.353 921.319 C 387.515 931.159, 393.169 936, 403.500 936 C 415.109 936, 420.500 930.450, 420.500 918.500 C 420.500 910.799, 418.603 906.276, 413.903 902.774 C 410.629 900.334, 400.823 899.528, 396.122 901.314 M 434.081 901.374 C 428.182 902.613, 426.714 904.241, 429.939 905.967 C 431.850 906.990, 432 907.972, 432 919.468 C 432 930.987, 431.858 931.910, 430 932.500 C 428.900 932.849, 428 933.796, 428 934.605 C 428 935.812, 429.638 936.024, 437.169 935.788 C 442.823 935.610, 446.481 935.070, 446.710 934.377 C 446.914 933.760, 446.163 933.014, 445.041 932.721 C 443.130 932.221, 443 931.426, 443 920.249 C 443 909.953, 443.252 908.082, 444.829 906.655 C 446.977 904.711, 450.107 904.507, 451.800 906.200 C 452.604 907.004, 453 911.474, 453 919.731 C 453 929.770, 452.721 932.170, 451.500 932.638 C 450.675 932.955, 450 933.841, 450 934.607 C 450 935.694, 451.974 936, 459 936 C 466.145 936, 468 935.705, 468 934.567 C 468 933.779, 467.154 932.866, 466.120 932.538 C 464.444 932.006, 464.195 930.598, 463.829 919.615 C 463.374 905.947, 462.390 903.233, 457.094 901.039 C 453.352 899.489, 448.117 900.333, 444.673 903.042 L 442.143 905.032 441.822 902.845 C 441.418 900.100, 440.753 899.973, 434.081 901.374 M 495.524 901.294 C 490.432 902.903, 488.066 906.655, 489.776 910.407 C 490.641 912.306, 491.712 913, 493.779 913 C 497.634 913, 498.938 911.393, 498.295 907.432 C 497.809 904.434, 498.033 904.030, 500.532 903.403 C 504.933 902.298, 506.461 903.977, 506.798 910.285 L 507.096 915.863 502.298 916.513 C 492.204 917.879, 488.809 919.883, 487.465 925.269 C 486.641 928.568, 488.527 933.677, 491.071 935.038 C 494.076 936.646, 501.268 936.134, 504.653 934.070 C 507.764 932.173, 507.812 932.173, 508.309 934.074 C 508.742 935.730, 509.738 936, 515.406 936 C 520.354 936, 522 935.655, 522 934.617 C 522 933.856, 521.100 932.998, 520 932.710 C 518.146 932.225, 518 931.346, 518 920.641 C 518 907.774, 517.083 904.611, 512.693 902.341 C 508.711 900.282, 500.340 899.771, 495.524 901.294 M 574.073 900.672 C 568.139 901.927, 564.779 906.850, 567.011 911.021 C 568.217 913.275, 573.393 913.767, 574.679 911.750 C 575.118 911.063, 575.482 908.925, 575.488 907 C 575.499 903.824, 575.786 903.472, 578.585 903.199 C 580.284 903.033, 582.168 903.498, 582.778 904.232 C 583.962 905.659, 584.760 914.573, 583.792 915.542 C 583.472 915.861, 580.375 916.523, 576.909 917.013 C 573.442 917.503, 569.485 918.740, 568.116 919.763 C 563.427 923.263, 562.918 929.918, 567.025 934.025 C 569.724 936.724, 577.141 936.694, 581.554 933.967 L 584.844 931.933 585.489 933.967 C 586.050 935.734, 586.978 936, 592.567 936 C 597.378 936, 599 935.651, 599 934.617 C 599 933.856, 598.100 932.998, 597 932.710 C 595.154 932.227, 595 931.346, 595 921.243 C 595 908.418, 593.923 904.529, 589.779 902.386 C 586.595 900.739, 578.127 899.815, 574.073 900.672 M 691.513 901.448 C 687.431 902.963, 685 905.317, 685 907.757 C 685 910.698, 687.107 913, 689.785 912.985 C 693.887 912.962, 695.219 911.720, 694.446 908.642 C 693.641 905.435, 695.357 903, 698.422 903 C 701.821 903, 703 904.967, 703 910.639 L 703 915.877 698.250 916.520 C 688.208 917.877, 684.807 919.890, 683.465 925.269 C 682.641 928.568, 684.527 933.677, 687.071 935.038 C 690.145 936.683, 697.046 936.135, 700.554 933.967 L 703.844 931.933 704.489 933.967 C 705.050 935.734, 705.978 936, 711.567 936 C 716.378 936, 718 935.651, 718 934.617 C 718 933.856, 717.100 932.998, 716 932.710 C 714.146 932.225, 714 931.346, 714 920.641 C 714 907.774, 713.083 904.611, 708.693 902.341 C 704.424 900.134, 696.206 899.706, 691.513 901.448 M 757.500 900.497 C 756.950 900.684, 754.813 901.118, 752.750 901.463 C 748.745 902.133, 747.660 904.416, 750.939 905.274 C 752.704 905.735, 752.907 906.892, 753.189 918.118 C 753.460 928.871, 753.275 930.646, 751.750 931.949 C 747.899 935.239, 749.543 936.089, 759.169 935.788 C 768.279 935.502, 771.889 933.942, 766.544 932.600 L 764 931.962 764 915.981 L 764 900 761.250 900.079 C 759.737 900.122, 758.050 900.311, 757.500 900.497 M 780.313 901.102 C 775.675 902.444, 772.684 906.662, 773.370 910.893 C 774.093 915.346, 777.073 918.384, 782.823 920.529 C 788.746 922.738, 791 924.697, 791 927.632 C 791 930.474, 787.246 933.139, 784.320 932.373 C 782.205 931.820, 781.040 929.388, 781.014 925.474 C 781.002 923.714, 780.473 923.497, 777 923.829 C 773.073 924.203, 773 924.282, 773 928.161 C 773 931.901, 773.249 932.223, 777.643 934.166 C 783.555 936.781, 792.669 936.384, 796.755 933.333 C 800.638 930.435, 801.757 925.811, 799.647 921.386 C 798.368 918.705, 796.621 917.269, 792.237 915.297 C 785.148 912.109, 783 910.307, 783 907.545 C 783 900.832, 791.329 901.792, 793.449 908.750 C 793.906 910.249, 794.918 911, 796.479 911 C 798.442 911, 798.936 910.337, 799.511 906.933 C 799.889 904.696, 800.007 902.674, 799.773 902.440 C 799.072 901.738, 788.925 899.993, 786.114 900.090 C 784.676 900.140, 782.066 900.595, 780.313 901.102 M 841.500 900.497 C 840.950 900.684, 838.813 901.118, 836.750 901.463 C 832.712 902.139, 831.669 904.419, 835 905.290 C 836.872 905.779, 837 906.654, 837 918.938 C 837 929.682, 836.728 932.167, 835.500 932.638 C 834.675 932.955, 834 933.858, 834 934.645 C 834 935.802, 835.749 936.020, 843.169 935.788 C 852.279 935.502, 855.889 933.942, 850.544 932.600 L 848 931.962 848 915.981 L 848 900 845.250 900.079 C 843.737 900.122, 842.050 900.311, 841.500 900.497 M 867.333 901.097 C 860.580 903.052, 856.266 912.070, 857.412 921.836 C 858.207 928.617, 860.252 932.562, 863.967 934.483 C 867.657 936.391, 873.666 936.423, 877.250 934.553 L 880 933.119 880 940.040 C 880 946.589, 879.865 946.996, 877.500 947.589 C 876.125 947.934, 875 948.843, 875 949.608 C 875 950.704, 877.124 951, 885 951 C 892.848 951, 895 950.702, 895 949.617 C 895 948.856, 894.100 947.998, 893 947.710 C 891.071 947.206, 891 946.346, 891 923.594 L 891 900 888.050 900 C 886.427 900, 884.714 900.688, 884.243 901.530 C 883.475 902.903, 883.012 902.903, 879.726 901.530 C 875.676 899.838, 872.113 899.713, 867.333 901.097 M 906.082 901.433 C 899.309 902.559, 897.519 904.137, 900.939 905.967 C 902.809 906.968, 903 907.996, 903 917.067 C 903 927.872, 904.415 933.081, 907.850 934.920 C 911.223 936.725, 918.437 936.231, 921.273 934 C 922.671 932.900, 924.029 932, 924.291 932 C 924.553 932, 925.002 932.900, 925.290 934 C 925.751 935.763, 926.654 936, 932.906 936 C 938.300 936, 940 935.666, 940 934.608 C 940 933.843, 938.875 932.934, 937.500 932.589 L 935 931.962 935 916.648 C 935 908.225, 934.771 901.105, 934.492 900.825 C 933.894 900.227, 921.162 902.505, 920.303 903.364 C 919.981 903.686, 920.699 904.749, 921.899 905.725 C 923.938 907.384, 924.062 908.221, 923.790 918.489 C 923.503 929.353, 923.469 929.492, 920.769 930.784 C 918.749 931.751, 917.513 931.810, 916.019 931.010 C 914.137 930.003, 914 928.952, 914 915.524 C 914 907.601, 913.663 900.949, 913.250 900.742 C 912.837 900.535, 909.612 900.845, 906.082 901.433 M 954.500 901.505 C 947.248 904.074, 943.242 911.910, 944.356 921.347 C 945.092 927.576, 947.609 931.798, 951.984 934.137 C 958.253 937.489, 970.172 936.116, 973.908 931.613 C 976.183 928.869, 973.811 927.422, 970.545 929.562 C 969.077 930.524, 965.840 931.354, 963.350 931.406 C 957.543 931.527, 955 928.781, 955 922.389 L 955 918 964.878 918 C 976.114 918, 977.636 917.190, 976.610 911.761 C 975.557 906.186, 972.482 902.228, 968.302 901.067 C 963.252 899.665, 959.344 899.789, 954.500 901.505 M 185.573 905.570 C 183.261 907.882, 182.753 910.995, 183.147 920.445 C 183.538 929.834, 184.838 932.250, 189.500 932.250 C 194.162 932.250, 195.462 929.834, 195.853 920.445 C 196.366 908.152, 194.762 904, 189.500 904 C 188.204 904, 186.436 904.706, 185.573 905.570 M 228.736 905.250 C 226.087 907.262, 225 911.586, 225 920.111 C 225 927.240, 225.260 928.351, 227.443 930.534 C 230.362 933.453, 233.786 932.750, 235.717 928.834 C 237.008 926.215, 237.685 906.917, 236.550 905.080 C 235.640 903.609, 230.757 903.715, 228.736 905.250 M 398.987 906.744 C 397.047 909.210, 396.862 910.475, 397.164 919.211 C 397.515 929.373, 398.231 931.107, 402.611 932.416 C 403.964 932.820, 405.579 932.352, 407.111 931.112 C 409.232 929.394, 409.539 928.212, 409.853 920.569 C 410.048 915.834, 409.935 910.876, 409.602 909.550 C 408.126 903.671, 402.561 902.200, 398.987 906.744 M 871.086 905.914 C 868.294 908.706, 867.727 911.643, 868.156 921.089 C 868.476 928.148, 868.827 929.442, 870.873 931.098 C 873.783 933.455, 874.215 933.456, 877.108 931.113 C 879.199 929.421, 879.493 928.167, 879.969 918.926 C 880.286 912.779, 880.087 907.793, 879.477 906.562 C 878.064 903.715, 873.628 903.372, 871.086 905.914 M 957 906 C 955.762 907.238, 955 909.333, 955 911.500 L 955 915 960.500 915 L 966 915 966 911.071 C 966 904.553, 961.169 901.831, 957 906 M 503.500 919.834 C 499.304 920.300, 497 922.706, 497 926.620 C 497 931.049, 499.812 932.666, 503.867 930.569 C 506.895 929.003, 507.936 926.189, 507.037 922 C 506.587 919.904, 506.015 919.554, 503.500 919.834 M 580.500 919.733 C 576.259 920.347, 574 922.740, 574 926.620 C 574 931.103, 576.812 932.665, 580.991 930.505 C 583.725 929.091, 584 928.493, 584 923.974 C 584 921.238, 583.888 919.067, 583.750 919.150 C 583.612 919.232, 582.150 919.495, 580.500 919.733 M 694.655 921.829 C 692.308 924.422, 692.500 929.662, 694.991 930.995 C 696.490 931.797, 697.726 931.676, 699.991 930.505 C 702.656 929.126, 703 928.437, 703 924.474 C 703 920.067, 702.950 920, 699.655 920 C 697.684 920, 695.630 920.751, 694.655 921.829" stroke="none" fill="#c2c9c8" fill-rule="evenodd"/></svg>